STARTFONT 2.1
FONT -FontForge-Ubuntu-Book-R-Normal--20-190-75-75-P-105-ISO10646-1
SIZE 19 75 75
FONTBOUNDINGBOX 19 20 -1 -4
COMMENT "Generated by fontforge, http://fontforge.sourceforge.net"
COMMENT "Copyright 2011 Canonical Ltd.  Licensed under the Ubuntu Font Licence 1.0"
STARTPROPERTIES 39
FOUNDRY "FontForge"
FAMILY_NAME "Ubuntu"
WEIGHT_NAME "Book"
SLANT "R"
SETWIDTH_NAME "Normal"
ADD_STYLE_NAME ""
PIXEL_SIZE 20
POINT_SIZE 190
RESOLUTION_X 75
RESOLUTION_Y 75
SPACING "P"
AVERAGE_WIDTH 105
CHARSET_REGISTRY "ISO10646"
CHARSET_ENCODING "1"
FONTNAME_REGISTRY ""
CHARSET_COLLECTIONS "ISO10646-1"
FONT_NAME "Ubuntu"
FACE_NAME "Ubuntu"
COPYRIGHT "Copyright 2011 Canonical Ltd.  Licensed under the Ubuntu Font Licence 1.0"
FONT_VERSION "0.83"
FONT_ASCENT 16
FONT_DESCENT 4
UNDERLINE_POSITION -3
UNDERLINE_THICKNESS 2
X_HEIGHT 10
CAP_HEIGHT 13
RAW_ASCENT 800
RAW_DESCENT 200
RELATIVE_WEIGHT 40
RELATIVE_SETWIDTH 50
SUPERSCRIPT_X 0
SUPERSCRIPT_Y 9
SUPERSCRIPT_SIZE 13
SUBSCRIPT_X 0
SUBSCRIPT_Y 2
SUBSCRIPT_SIZE 13
FIGURE_WIDTH 11
AVG_LOWERCASE_WIDTH 103
AVG_UPPERCASE_WIDTH 128
ENDPROPERTIES
CHARS 95
STARTCHAR exclam
ENCODING 33
SWIDTH 276 0
DWIDTH 6 0
BBX 2 14 2 0
BITMAP
C0
C0
C0
C0
C0
C0
C0
C0
C0
00
00
C0
C0
C0
ENDCHAR
STARTCHAR quotedbl
ENCODING 34
SWIDTH 418 0
DWIDTH 8 0
BBX 6 5 2 11
BITMAP
CC
CC
C8
C8
C8
ENDCHAR
STARTCHAR numbersign
ENCODING 35
SWIDTH 667 0
DWIDTH 13 0
BBX 11 14 1 0
BITMAP
0CC0
0CC0
1980
1980
FFE0
FFE0
1980
3300
FFE0
FFE0
3300
3300
6600
6600
ENDCHAR
STARTCHAR dollar
ENCODING 36
SWIDTH 564 0
DWIDTH 11 0
BBX 9 18 1 -3
BITMAP
0C00
0C00
3F00
7F00
E100
C000
E000
7800
1E00
0700
0180
0180
8380
FF80
7E00
0C00
0C00
0C00
ENDCHAR
STARTCHAR percent
ENCODING 37
SWIDTH 858 0
DWIDTH 17 0
BBX 15 14 1 0
BITMAP
3830
6C60
C660
C6C0
C6C0
6D80
3980
0338
036C
06C6
06C6
0CC6
0C6C
1838
ENDCHAR
STARTCHAR ampersand
ENCODING 38
SWIDTH 666 0
DWIDTH 13 0
BBX 11 14 1 0
BITMAP
1E00
7F00
6300
6300
6700
3E00
3C00
7C20
E660
C6C0
C3C0
E180
7FC0
3E60
ENDCHAR
STARTCHAR quotesingle
ENCODING 39
SWIDTH 241 0
DWIDTH 5 0
BBX 2 5 2 11
BITMAP
C0
C0
C0
C0
C0
ENDCHAR
STARTCHAR parenleft
ENCODING 40
SWIDTH 324 0
DWIDTH 6 0
BBX 4 20 2 -4
BITMAP
10
30
30
60
60
60
C0
C0
C0
C0
C0
C0
C0
C0
60
60
60
30
30
10
ENDCHAR
STARTCHAR parenright
ENCODING 41
SWIDTH 324 0
DWIDTH 6 0
BBX 4 20 0 -4
BITMAP
80
C0
C0
60
60
60
30
30
30
30
30
30
30
30
60
60
60
C0
C0
80
ENDCHAR
STARTCHAR asterisk
ENCODING 42
SWIDTH 480 0
DWIDTH 10 0
BBX 9 8 1 6
BITMAP
0800
0800
C980
7F00
0800
3600
7700
2200
ENDCHAR
STARTCHAR plus
ENCODING 43
SWIDTH 564 0
DWIDTH 11 0
BBX 10 10 1 1
BITMAP
0C00
0C00
0C00
0C00
FFC0
FFC0
0C00
0C00
0C00
0C00
ENDCHAR
STARTCHAR comma
ENCODING 44
SWIDTH 246 0
DWIDTH 5 0
BBX 3 5 1 -3
BITMAP
60
60
60
40
C0
ENDCHAR
STARTCHAR hyphen
ENCODING 45
SWIDTH 299 0
DWIDTH 7 0
BBX 5 2 1 5
BITMAP
F8
F8
ENDCHAR
STARTCHAR period
ENCODING 46
SWIDTH 246 0
DWIDTH 5 0
BBX 2 3 1 0
BITMAP
C0
C0
C0
ENDCHAR
STARTCHAR slash
ENCODING 47
SWIDTH 384 0
DWIDTH 8 0
BBX 8 20 0 -4
BITMAP
03
03
06
06
06
0C
0C
0C
18
18
18
18
30
30
30
60
60
60
C0
C0
ENDCHAR
STARTCHAR zero
ENCODING 48
SWIDTH 564 0
DWIDTH 11 0
BBX 9 14 1 0
BITMAP
1C00
7F00
6300
E380
C180
C180
C180
C180
C180
C180
E380
6300
7F00
1C00
ENDCHAR
STARTCHAR one
ENCODING 49
SWIDTH 564 0
DWIDTH 11 0
BBX 6 14 1 0
BITMAP
0C
3C
FC
CC
0C
0C
0C
0C
0C
0C
0C
0C
0C
0C
ENDCHAR
STARTCHAR two
ENCODING 50
SWIDTH 564 0
DWIDTH 11 0
BBX 8 14 1 0
BITMAP
3C
FE
C7
03
03
03
06
0C
18
70
60
C0
FF
FF
ENDCHAR
STARTCHAR three
ENCODING 51
SWIDTH 564 0
DWIDTH 11 0
BBX 8 14 1 0
BITMAP
78
FE
06
06
0E
3C
3C
06
03
03
03
87
FE
7C
ENDCHAR
STARTCHAR four
ENCODING 52
SWIDTH 564 0
DWIDTH 11 0
BBX 9 14 1 0
BITMAP
0600
0E00
1E00
3E00
3600
6600
6600
C600
FF80
FF80
0600
0600
0600
0600
ENDCHAR
STARTCHAR five
ENCODING 53
SWIDTH 564 0
DWIDTH 11 0
BBX 9 14 1 0
BITMAP
7F80
7F80
6000
6000
6000
7C00
7F00
0700
0180
0180
0180
8380
FF00
7C00
ENDCHAR
STARTCHAR six
ENCODING 54
SWIDTH 564 0
DWIDTH 11 0
BBX 9 14 1 0
BITMAP
0700
1F00
3800
6000
6000
FE00
FF00
C380
C180
C180
C180
6380
7F00
3E00
ENDCHAR
STARTCHAR seven
ENCODING 55
SWIDTH 564 0
DWIDTH 11 0
BBX 9 14 1 0
BITMAP
FF80
FF80
0180
0300
0600
0600
0C00
0C00
1800
1800
1800
3000
3000
3000
ENDCHAR
STARTCHAR eight
ENCODING 56
SWIDTH 564 0
DWIDTH 11 0
BBX 9 14 1 0
BITMAP
3E00
7F00
E380
C180
C180
7300
3E00
7700
C380
C180
C180
E380
7F00
3E00
ENDCHAR
STARTCHAR nine
ENCODING 57
SWIDTH 564 0
DWIDTH 11 0
BBX 9 14 1 0
BITMAP
3E00
7F00
E300
C180
C180
C180
E180
7F80
3F80
0300
0300
0E00
7C00
7000
ENDCHAR
STARTCHAR colon
ENCODING 58
SWIDTH 246 0
DWIDTH 5 0
BBX 2 11 1 0
BITMAP
C0
C0
C0
00
00
00
00
00
C0
C0
C0
ENDCHAR
STARTCHAR semicolon
ENCODING 59
SWIDTH 246 0
DWIDTH 5 0
BBX 3 14 1 -3
BITMAP
60
60
60
00
00
00
00
00
00
60
60
60
40
C0
ENDCHAR
STARTCHAR less
ENCODING 60
SWIDTH 564 0
DWIDTH 11 0
BBX 9 9 1 1
BITMAP
0080
0780
3F00
F800
C000
F800
3E00
0780
0080
ENDCHAR
STARTCHAR equal
ENCODING 61
SWIDTH 564 0
DWIDTH 11 0
BBX 9 7 1 2
BITMAP
FF80
FF80
0000
0000
0000
FF80
FF80
ENDCHAR
STARTCHAR greater
ENCODING 62
SWIDTH 564 0
DWIDTH 11 0
BBX 8 9 2 1
BITMAP
80
F0
7C
0F
03
0F
7C
F0
80
ENDCHAR
STARTCHAR question
ENCODING 63
SWIDTH 404 0
DWIDTH 8 0
BBX 6 14 1 0
BITMAP
78
FC
8C
0C
0C
18
18
30
30
00
00
30
30
30
ENDCHAR
STARTCHAR at
ENCODING 64
SWIDTH 950 0
DWIDTH 19 0
BBX 17 17 1 -3
BITMAP
07F000
1FFC00
3C0E00
700700
63F300
E7F180
CE3180
CC3180
CC3180
CC3180
CE3300
E7FF00
63FE00
700000
3C0000
1FF000
07F000
ENDCHAR
STARTCHAR A
ENCODING 65
SWIDTH 663 0
DWIDTH 13 0
BBX 13 14 0 0
BITMAP
0700
0700
0D80
0D80
0D80
18C0
18C0
3060
3060
3FE0
7FF0
6030
6030
C018
ENDCHAR
STARTCHAR B
ENCODING 66
SWIDTH 643 0
DWIDTH 13 0
BBX 10 14 2 0
BITMAP
FE00
FF00
C380
C180
C380
FF00
FF80
C1C0
C0C0
C0C0
C0C0
C1C0
FF80
FE00
ENDCHAR
STARTCHAR C
ENCODING 67
SWIDTH 620 0
DWIDTH 12 0
BBX 10 14 1 0
BITMAP
0F80
3FC0
7040
6000
C000
C000
C000
C000
C000
C000
6000
7040
3FC0
0F80
ENDCHAR
STARTCHAR D
ENCODING 68
SWIDTH 713 0
DWIDTH 14 0
BBX 11 14 2 0
BITMAP
FE00
FF80
C1C0
C0C0
C060
C060
C060
C060
C060
C060
C0C0
C1C0
FF80
FE00
ENDCHAR
STARTCHAR E
ENCODING 69
SWIDTH 571 0
DWIDTH 11 0
BBX 8 14 2 0
BITMAP
FE
FE
C0
C0
C0
FE
FE
C0
C0
C0
C0
C0
FF
FF
ENDCHAR
STARTCHAR F
ENCODING 70
SWIDTH 537 0
DWIDTH 11 0
BBX 8 14 2 0
BITMAP
FF
FF
C0
C0
C0
C0
FE
FE
C0
C0
C0
C0
C0
C0
ENDCHAR
STARTCHAR G
ENCODING 71
SWIDTH 672 0
DWIDTH 13 0
BBX 10 14 1 0
BITMAP
0F80
3FC0
7040
6000
C000
C000
C000
C0C0
C0C0
C0C0
60C0
70C0
3FC0
1FC0
ENDCHAR
STARTCHAR H
ENCODING 72
SWIDTH 705 0
DWIDTH 14 0
BBX 10 14 2 0
BITMAP
C0C0
C0C0
C0C0
C0C0
C0C0
C0C0
FFC0
FFC0
C0C0
C0C0
C0C0
C0C0
C0C0
C0C0
ENDCHAR
STARTCHAR I
ENCODING 73
SWIDTH 269 0
DWIDTH 6 0
BBX 2 14 2 0
BITMAP
C0
C0
C0
C0
C0
C0
C0
C0
C0
C0
C0
C0
C0
C0
ENDCHAR
STARTCHAR J
ENCODING 74
SWIDTH 500 0
DWIDTH 10 0
BBX 8 14 0 0
BITMAP
03
03
03
03
03
03
03
03
03
03
03
07
FE
7C
ENDCHAR
STARTCHAR K
ENCODING 75
SWIDTH 629 0
DWIDTH 13 0
BBX 10 14 2 0
BITMAP
C0C0
C180
C300
C600
CC00
D800
F000
D800
CC00
C600
C300
C180
C1C0
C0C0
ENDCHAR
STARTCHAR L
ENCODING 76
SWIDTH 519 0
DWIDTH 10 0
BBX 8 14 2 0
BITMAP
C0
C0
C0
C0
C0
C0
C0
C0
C0
C0
C0
C0
FF
FF
ENDCHAR
STARTCHAR M
ENCODING 77
SWIDTH 871 0
DWIDTH 18 0
BBX 16 14 1 0
BITMAP
6006
700E
700E
781E
6816
EC36
C423
C663
C663
C3C3
C3C3
C183
C003
C003
ENDCHAR
STARTCHAR N
ENCODING 78
SWIDTH 728 0
DWIDTH 15 0
BBX 11 14 2 0
BITMAP
C060
E060
F060
F060
D860
CC60
C660
C660
C360
C160
C1E0
C0E0
C060
C060
ENDCHAR
STARTCHAR O
ENCODING 79
SWIDTH 778 0
DWIDTH 16 0
BBX 14 14 1 0
BITMAP
0FC0
3FF0
7878
6018
E01C
C00C
C00C
C00C
C00C
E01C
6018
7878
3FF0
0FC0
ENDCHAR
STARTCHAR P
ENCODING 80
SWIDTH 608 0
DWIDTH 12 0
BBX 9 14 2 0
BITMAP
FC00
FF00
C380
C180
C180
C180
C380
FF00
FE00
C000
C000
C000
C000
C000
ENDCHAR
STARTCHAR Q
ENCODING 81
SWIDTH 778 0
DWIDTH 16 0
BBX 14 18 1 -4
BITMAP
0FC0
3FF0
7878
6018
E01C
C00C
C00C
C00C
C00C
E01C
6018
7870
3FE0
0F80
0300
01C0
00F8
0038
ENDCHAR
STARTCHAR R
ENCODING 82
SWIDTH 629 0
DWIDTH 13 0
BBX 11 14 2 0
BITMAP
FE00
FF80
C1C0
C0C0
C0C0
C0C0
C1C0
FF80
FE00
C300
C380
C1C0
C0C0
C060
ENDCHAR
STARTCHAR S
ENCODING 83
SWIDTH 532 0
DWIDTH 11 0
BBX 9 14 1 0
BITMAP
3E00
7F00
E000
C000
C000
7000
3E00
0F00
0380
0180
0180
8380
FF00
7E00
ENDCHAR
STARTCHAR T
ENCODING 84
SWIDTH 565 0
DWIDTH 10 0
BBX 10 14 0 0
BITMAP
FFC0
FFC0
0C00
0C00
0C00
0C00
0C00
0C00
0C00
0C00
0C00
0C00
0C00
0C00
ENDCHAR
STARTCHAR U
ENCODING 85
SWIDTH 688 0
DWIDTH 14 0
BBX 10 14 2 0
BITMAP
C0C0
C0C0
C0C0
C0C0
C0C0
C0C0
C0C0
C0C0
C0C0
C0C0
C0C0
6180
7F80
1E00
ENDCHAR
STARTCHAR V
ENCODING 86
SWIDTH 656 0
DWIDTH 13 0
BBX 13 14 0 0
BITMAP
C018
6030
6030
6030
3060
3060
18C0
18C0
18C0
0D80
0D80
0700
0700
0200
ENDCHAR
STARTCHAR W
ENCODING 87
SWIDTH 929 0
DWIDTH 19 0
BBX 17 14 1 0
BITMAP
C00180
C00180
C1C180
61C300
61C300
616300
636300
636300
322600
363600
363600
343600
1C1C00
1C1C00
ENDCHAR
STARTCHAR X
ENCODING 88
SWIDTH 631 0
DWIDTH 13 0
BBX 13 14 0 0
BITMAP
C018
6030
3060
18C0
0D80
0D80
0700
0700
0D80
18C0
18C0
3060
6030
C018
ENDCHAR
STARTCHAR Y
ENCODING 89
SWIDTH 598 0
DWIDTH 12 0
BBX 12 14 0 0
BITMAP
C030
6060
6060
30C0
1980
1980
0F00
0600
0600
0600
0600
0600
0600
0600
ENDCHAR
STARTCHAR Z
ENCODING 90
SWIDTH 573 0
DWIDTH 11 0
BBX 9 14 1 0
BITMAP
FF80
FF80
0180
0300
0600
0C00
0C00
1800
3000
3000
6000
C000
FF80
FF80
ENDCHAR
STARTCHAR bracketleft
ENCODING 91
SWIDTH 329 0
DWIDTH 7 0
BBX 5 20 2 -4
BITMAP
F8
F8
C0
C0
C0
C0
C0
C0
C0
C0
C0
C0
C0
C0
C0
C0
C0
C0
F8
F8
ENDCHAR
STARTCHAR backslash
ENCODING 92
SWIDTH 384 0
DWIDTH 8 0
BBX 8 20 0 -4
BITMAP
C0
C0
60
60
60
30
30
30
18
18
18
18
0C
0C
0C
06
06
06
03
03
ENDCHAR
STARTCHAR bracketright
ENCODING 93
SWIDTH 329 0
DWIDTH 7 0
BBX 5 20 0 -4
BITMAP
F8
F8
18
18
18
18
18
18
18
18
18
18
18
18
18
18
18
18
F8
F8
ENDCHAR
STARTCHAR asciicircum
ENCODING 94
SWIDTH 564 0
DWIDTH 11 0
BBX 9 8 1 6
BITMAP
0800
1C00
1400
3600
2200
6300
C180
4100
ENDCHAR
STARTCHAR underscore
ENCODING 95
SWIDTH 492 0
DWIDTH 10 0
BBX 10 2 0 -4
BITMAP
FFC0
FFC0
ENDCHAR
STARTCHAR grave
ENCODING 96
SWIDTH 376 0
DWIDTH 8 0
BBX 4 4 1 12
BITMAP
40
E0
30
10
ENDCHAR
STARTCHAR a
ENCODING 97
SWIDTH 522 0
DWIDTH 10 0
BBX 7 11 1 0
BITMAP
7C
7C
06
06
7E
FE
C6
C6
C6
FE
7E
ENDCHAR
STARTCHAR b
ENCODING 98
SWIDTH 589 0
DWIDTH 12 0
BBX 9 15 2 0
BITMAP
C000
C000
C000
C000
FE00
FF00
C300
C180
C180
C180
C180
C180
C300
FF00
FC00
ENDCHAR
STARTCHAR c
ENCODING 99
SWIDTH 465 0
DWIDTH 10 0
BBX 8 11 1 0
BITMAP
1F
7F
60
C0
C0
C0
C0
C0
60
7F
1F
ENDCHAR
STARTCHAR d
ENCODING 100
SWIDTH 589 0
DWIDTH 12 0
BBX 9 15 1 0
BITMAP
0180
0180
0180
0180
3F80
7F80
6180
C180
C180
C180
C180
C180
6180
7F80
1F80
ENDCHAR
STARTCHAR e
ENCODING 101
SWIDTH 559 0
DWIDTH 11 0
BBX 9 11 1 0
BITMAP
1E00
7F00
6300
C180
C180
FF80
FF80
C000
6000
7F00
1F00
ENDCHAR
STARTCHAR f
ENCODING 102
SWIDTH 386 0
DWIDTH 8 0
BBX 6 15 2 0
BITMAP
3C
7C
C0
C0
FC
FC
C0
C0
C0
C0
C0
C0
C0
C0
C0
ENDCHAR
STARTCHAR g
ENCODING 103
SWIDTH 578 0
DWIDTH 12 0
BBX 9 15 1 -4
BITMAP
1F80
7F80
6180
C180
C180
C180
C180
C180
6180
7F80
3F80
0180
0380
7F00
7E00
ENDCHAR
STARTCHAR h
ENCODING 104
SWIDTH 571 0
DWIDTH 12 0
BBX 8 15 2 0
BITMAP
C0
C0
C0
C0
FC
FE
C7
C3
C3
C3
C3
C3
C3
C3
C3
ENDCHAR
STARTCHAR i
ENCODING 105
SWIDTH 253 0
DWIDTH 6 0
BBX 2 15 2 0
BITMAP
C0
C0
00
00
C0
C0
C0
C0
C0
C0
C0
C0
C0
C0
C0
ENDCHAR
STARTCHAR j
ENCODING 106
SWIDTH 253 0
DWIDTH 6 0
BBX 5 19 -1 -4
BITMAP
18
18
00
00
18
18
18
18
18
18
18
18
18
18
18
18
18
F0
E0
ENDCHAR
STARTCHAR k
ENCODING 107
SWIDTH 522 0
DWIDTH 10 0
BBX 8 15 2 0
BITMAP
C0
C0
C0
C0
C3
C6
CC
D8
F0
F0
D8
CC
C4
C6
C3
ENDCHAR
STARTCHAR l
ENCODING 108
SWIDTH 273 0
DWIDTH 6 0
BBX 4 15 2 0
BITMAP
C0
C0
C0
C0
C0
C0
C0
C0
C0
C0
C0
C0
C0
F0
70
ENDCHAR
STARTCHAR m
ENCODING 109
SWIDTH 861 0
DWIDTH 18 0
BBX 14 11 2 0
BITMAP
FCF0
FFF8
C71C
C30C
C30C
C30C
C30C
C30C
C30C
C30C
C30C
ENDCHAR
STARTCHAR n
ENCODING 110
SWIDTH 574 0
DWIDTH 12 0
BBX 8 11 2 0
BITMAP
FC
FE
C7
C3
C3
C3
C3
C3
C3
C3
C3
ENDCHAR
STARTCHAR o
ENCODING 111
SWIDTH 590 0
DWIDTH 12 0
BBX 10 11 1 0
BITMAP
1E00
7F80
6180
C0C0
C0C0
C0C0
C0C0
C0C0
6180
7F80
1E00
ENDCHAR
STARTCHAR p
ENCODING 112
SWIDTH 589 0
DWIDTH 12 0
BBX 9 15 2 -4
BITMAP
FC00
FF00
C300
C180
C180
C180
C180
C180
C300
FF00
FE00
C000
C000
C000
C000
ENDCHAR
STARTCHAR q
ENCODING 113
SWIDTH 589 0
DWIDTH 12 0
BBX 9 15 1 -4
BITMAP
1F80
7F80
6180
C180
C180
C180
C180
C180
6180
7F80
3F80
0180
0180
0180
0180
ENDCHAR
STARTCHAR r
ENCODING 114
SWIDTH 386 0
DWIDTH 8 0
BBX 6 11 2 0
BITMAP
7C
FC
C0
C0
C0
C0
C0
C0
C0
C0
C0
ENDCHAR
STARTCHAR s
ENCODING 115
SWIDTH 446 0
DWIDTH 9 0
BBX 7 11 1 0
BITMAP
7C
FC
C0
C0
E0
7C
1E
06
06
FE
FC
ENDCHAR
STARTCHAR t
ENCODING 116
SWIDTH 402 0
DWIDTH 8 0
BBX 5 14 2 0
BITMAP
C0
C0
C0
F8
F8
C0
C0
C0
C0
C0
C0
C0
F8
78
ENDCHAR
STARTCHAR u
ENCODING 117
SWIDTH 574 0
DWIDTH 12 0
BBX 8 11 2 0
BITMAP
C3
C3
C3
C3
C3
C3
C3
C3
E3
7F
3F
ENDCHAR
STARTCHAR v
ENCODING 118
SWIDTH 502 0
DWIDTH 10 0
BBX 10 11 0 0
BITMAP
C0C0
C0C0
6180
6180
6180
3300
3300
1A00
1E00
1E00
0C00
ENDCHAR
STARTCHAR w
ENCODING 119
SWIDTH 777 0
DWIDTH 15 0
BBX 15 11 0 0
BITMAP
C106
C186
618C
628C
628C
22C8
36D8
3458
1450
1C30
0820
ENDCHAR
STARTCHAR x
ENCODING 120
SWIDTH 511 0
DWIDTH 10 0
BBX 10 11 0 0
BITMAP
C0C0
6180
3300
1E00
1E00
0C00
1E00
3F00
3300
6180
C0C0
ENDCHAR
STARTCHAR y
ENCODING 121
SWIDTH 497 0
DWIDTH 9 0
BBX 9 15 0 -4
BITMAP
C180
C180
6300
6300
6300
3600
3600
3600
3400
1C00
1C00
1800
1800
F800
E000
ENDCHAR
STARTCHAR z
ENCODING 122
SWIDTH 471 0
DWIDTH 9 0
BBX 7 11 1 0
BITMAP
FE
FE
06
0C
18
30
30
60
C0
FE
FE
ENDCHAR
STARTCHAR braceleft
ENCODING 123
SWIDTH 333 0
DWIDTH 7 0
BBX 6 20 1 -4
BITMAP
1C
3C
30
30
30
30
30
30
70
E0
F0
70
30
30
30
30
30
30
3C
1C
ENDCHAR
STARTCHAR bar
ENCODING 124
SWIDTH 279 0
DWIDTH 6 0
BBX 2 20 2 -4
BITMAP
C0
C0
C0
C0
C0
C0
C0
C0
C0
C0
C0
C0
C0
C0
C0
C0
C0
C0
C0
C0
ENDCHAR
STARTCHAR braceright
ENCODING 125
SWIDTH 333 0
DWIDTH 7 0
BBX 6 20 0 -4
BITMAP
E0
F0
30
30
30
30
30
30
38
1C
3C
38
30
30
30
30
30
30
F0
E0
ENDCHAR
STARTCHAR asciitilde
ENCODING 126
SWIDTH 564 0
DWIDTH 11 0
BBX 10 4 1 4
BITMAP
70C0
79C0
E780
C380
ENDCHAR
STARTCHAR ordmasculine
ENCODING 186
SWIDTH 446 0
DWIDTH 9 0
BBX 7 7 1 7
BITMAP
38
6C
C6
C6
C6
6C
38
ENDCHAR
ENDFONT
