STARTFONT 2.1
FONT -FontForge-Ubuntu-Book-R-Normal--42-400-75-75-P-222-ISO10646-1
SIZE 40 75 75
FONTBOUNDINGBOX 41 41 -3 -8
COMMENT "Generated by fontforge, http://fontforge.sourceforge.net"
COMMENT "Copyright 2011 Canonical Ltd.  Licensed under the Ubuntu Font Licence 1.0"
STARTPROPERTIES 39
FOUNDRY "FontForge"
FAMILY_NAME "Ubuntu"
WEIGHT_NAME "Book"
SLANT "R"
SETWIDTH_NAME "Normal"
ADD_STYLE_NAME ""
PIXEL_SIZE 42
POINT_SIZE 400
RESOLUTION_X 75
RESOLUTION_Y 75
SPACING "P"
AVERAGE_WIDTH 222
CHARSET_REGISTRY "ISO10646"
CHARSET_ENCODING "1"
FONTNAME_REGISTRY ""
CHARSET_COLLECTIONS "ISO10646-1"
FONT_NAME "Ubuntu"
FACE_NAME "Ubuntu"
COPYRIGHT "Copyright 2011 Canonical Ltd.  Licensed under the Ubuntu Font Licence 1.0"
FONT_VERSION "0.83"
FONT_ASCENT 34
FONT_DESCENT 8
UNDERLINE_POSITION -7
UNDERLINE_THICKNESS 4
X_HEIGHT 21
CAP_HEIGHT 28
RAW_ASCENT 800
RAW_DESCENT 200
RELATIVE_WEIGHT 40
RELATIVE_SETWIDTH 50
SUPERSCRIPT_X 0
SUPERSCRIPT_Y 20
SUPERSCRIPT_SIZE 27
SUBSCRIPT_X 0
SUBSCRIPT_Y 5
SUBSCRIPT_SIZE 27
FIGURE_WIDTH 24
AVG_LOWERCASE_WIDTH 214
AVG_UPPERCASE_WIDTH 268
ENDPROPERTIES
CHARS 95
STARTCHAR exclam
ENCODING 33
SWIDTH 276 0
DWIDTH 12 0
BBX 6 29 3 0
BITMAP
78
78
78
78
78
78
78
78
78
78
78
78
78
78
78
78
30
30
30
00
00
00
00
78
FC
FC
FC
FC
78
ENDCHAR
STARTCHAR quotedbl
ENCODING 34
SWIDTH 418 0
DWIDTH 18 0
BBX 11 11 3 22
BITMAP
F1E0
F1E0
F1E0
F1E0
F0E0
F0E0
F0E0
F0E0
F0E0
60E0
60E0
ENDCHAR
STARTCHAR numbersign
ENCODING 35
SWIDTH 667 0
DWIDTH 28 0
BBX 24 29 2 0
BITMAP
00F03C
00F03C
01F078
01E078
01E078
01E078
01E078
03E0F0
FFFFFF
FFFFFF
FFFFFF
03C0F0
0781E0
0781E0
0781E0
0781E0
0781E0
0F03C0
FFFFFF
FFFFFF
FFFFFF
0F07C0
1E0780
1E0780
1E0780
1E0780
1E0F80
3C0F00
3C0F00
ENDCHAR
STARTCHAR dollar
ENCODING 36
SWIDTH 564 0
DWIDTH 24 0
BBX 18 38 3 -5
BITMAP
01C000
01C000
01C000
01C000
01C000
03FC00
0FFF80
1FFF80
3E0300
7C0000
780000
780000
780000
780000
7C0000
7C0000
3F0000
1FE000
0FF800
03FC00
00FF00
003F80
000F80
0007C0
0003C0
0003C0
0003C0
0003C0
000780
700F80
FFFF00
FFFE00
1FF000
01C000
01C000
01C000
01C000
01C000
ENDCHAR
STARTCHAR percent
ENCODING 37
SWIDTH 858 0
DWIDTH 36 0
BBX 32 29 2 0
BITMAP
0F8003C0
3FE00380
3FE00780
78F00700
70700E00
E0381E00
E0381C00
E0383C00
E0383800
E0387800
E0387000
7070E000
78F1E000
3FE1C1F0
3FE3C7FC
0F8387FC
00078F1E
00071E0E
000E1C07
001E1C07
001C1C07
003C1C07
00381C07
00781C07
00700E0E
00E00F1E
01E007FC
01C007FC
03C001F0
ENDCHAR
STARTCHAR ampersand
ENCODING 38
SWIDTH 666 0
DWIDTH 28 0
BBX 25 29 2 0
BITMAP
00FC0000
03FF0000
07FF8000
0F878000
1F03C000
1E03C000
1E03C000
1E03C000
1E07C000
1F078000
0F0F0000
0FBE0000
07FC0000
03F80000
0FF00000
1FF80700
3E7C0700
783E0E00
781F0E00
F00F9C00
F007DC00
F007F800
F003F000
F801F000
7801FC00
7E07FE00
3FFFBF00
1FFF1F00
03FC0F80
ENDCHAR
STARTCHAR quotesingle
ENCODING 39
SWIDTH 241 0
DWIDTH 10 0
BBX 4 11 3 22
BITMAP
F0
F0
F0
F0
F0
F0
F0
F0
F0
60
60
ENDCHAR
STARTCHAR parenleft
ENCODING 40
SWIDTH 324 0
DWIDTH 14 0
BBX 10 41 3 -8
BITMAP
0100
0380
07C0
0780
0F00
0F00
1E00
1E00
3C00
3C00
7C00
7800
7800
7800
F800
F000
F000
F000
F000
F000
F000
F000
F000
F000
F000
F000
F000
7800
7800
7800
7800
3C00
3C00
1E00
1E00
0F00
0F00
0780
07C0
0380
0100
ENDCHAR
STARTCHAR parenright
ENCODING 41
SWIDTH 324 0
DWIDTH 14 0
BBX 10 41 1 -8
BITMAP
2000
7000
F800
7800
3C00
3C00
1E00
1E00
0F00
0F00
0F00
0780
0780
0780
0780
03C0
03C0
03C0
03C0
03C0
03C0
03C0
03C0
03C0
03C0
03C0
0780
0780
0780
0780
0F80
0F00
0F00
1E00
1E00
3C00
3C00
7800
F800
7000
2000
ENDCHAR
STARTCHAR asterisk
ENCODING 42
SWIDTH 480 0
DWIDTH 20 0
BBX 17 16 2 13
BITMAP
01C000
01C000
01C000
01C000
61C300
79CF00
FFBF80
7FFF00
07F000
03E000
077000
0F7800
1E3C00
3E3E00
1C1C00
080800
ENDCHAR
STARTCHAR plus
ENCODING 43
SWIDTH 564 0
DWIDTH 24 0
BBX 19 19 2 3
BITMAP
00E000
00E000
00E000
00E000
00E000
00E000
00E000
00E000
FFFFE0
FFFFE0
FFFFE0
00E000
00E000
00E000
00E000
00E000
00E000
00E000
00E000
ENDCHAR
STARTCHAR comma
ENCODING 44
SWIDTH 246 0
DWIDTH 10 0
BBX 6 12 1 -7
BITMAP
3C
3C
3C
3C
3C
3C
38
78
78
70
F0
60
ENDCHAR
STARTCHAR hyphen
ENCODING 45
SWIDTH 299 0
DWIDTH 12 0
BBX 10 3 1 11
BITMAP
FFC0
FFC0
FFC0
ENDCHAR
STARTCHAR period
ENCODING 46
SWIDTH 246 0
DWIDTH 10 0
BBX 6 6 2 0
BITMAP
78
FC
FC
FC
FC
78
ENDCHAR
STARTCHAR slash
ENCODING 47
SWIDTH 384 0
DWIDTH 16 0
BBX 18 41 -1 -8
BITMAP
0001C0
000380
000380
000380
000700
000700
000F00
000E00
000E00
001E00
001C00
001C00
003800
003800
003800
007000
007000
007000
00E000
00E000
01E000
01C000
01C000
038000
038000
038000
070000
070000
070000
0E0000
0E0000
1E0000
1C0000
1C0000
3C0000
380000
380000
700000
700000
700000
E00000
ENDCHAR
STARTCHAR zero
ENCODING 48
SWIDTH 564 0
DWIDTH 24 0
BBX 20 29 2 0
BITMAP
01F800
07FE00
0FFF00
1F0F80
3C07C0
3C03C0
7801E0
7801E0
7801E0
F000F0
F000F0
F000F0
F000F0
F000F0
F000F0
F000F0
F000F0
F000F0
F000F0
F000F0
7801E0
7801E0
7801E0
3C03C0
3E07C0
1F0F80
0FFF00
07FE00
01F800
ENDCHAR
STARTCHAR one
ENCODING 49
SWIDTH 564 0
DWIDTH 24 0
BBX 12 29 4 0
BITMAP
0070
00F0
03F0
07F0
1FF0
7FF0
FEF0
78F0
60F0
00F0
00F0
00F0
00F0
00F0
00F0
00F0
00F0
00F0
00F0
00F0
00F0
00F0
00F0
00F0
00F0
00F0
00F0
00F0
00F0
ENDCHAR
STARTCHAR two
ENCODING 50
SWIDTH 564 0
DWIDTH 24 0
BBX 19 29 2 0
BITMAP
07F800
1FFE00
7FFF00
FC1F80
700780
0007C0
0003C0
0003C0
0003C0
0003C0
000780
000F80
000F00
001F00
003E00
007C00
00F800
03F000
07E000
07C000
0F8000
1F0000
3E0000
3C0000
380000
780000
7FFFE0
7FFFE0
7FFFE0
ENDCHAR
STARTCHAR three
ENCODING 51
SWIDTH 564 0
DWIDTH 24 0
BBX 19 29 2 0
BITMAP
07F800
3FFE00
7FFF00
381F80
2007C0
0003C0
0003C0
0003C0
0003C0
000780
000F80
003F00
07FC00
07FC00
07FF00
003F80
0007C0
0003C0
0001E0
0001E0
0001E0
0001E0
0001E0
0003C0
0007C0
E01F80
FFFF00
FFFE00
1FF000
ENDCHAR
STARTCHAR four
ENCODING 52
SWIDTH 564 0
DWIDTH 24 0
BBX 20 29 2 0
BITMAP
000780
000F80
001F80
003F80
007F80
00FF80
00F780
01E780
03C780
038780
078780
0F0780
0E0780
1E0780
3C0780
3C0780
780780
780780
F00780
FFFFF0
FFFFF0
FFFFF0
000780
000780
000780
000780
000780
000780
000780
ENDCHAR
STARTCHAR five
ENCODING 53
SWIDTH 564 0
DWIDTH 24 0
BBX 18 29 3 0
BITMAP
1FFF80
1FFF80
1FFF80
1E0000
1E0000
1E0000
1C0000
1C0000
3C0000
3C0000
3C0000
3FC000
3FF800
3FFE00
00FF00
001F80
000F80
0007C0
0003C0
0003C0
0003C0
0003C0
0003C0
000780
000F80
E01F00
FFFE00
FFFC00
1FF000
ENDCHAR
STARTCHAR six
ENCODING 54
SWIDTH 564 0
DWIDTH 24 0
BBX 19 29 3 0
BITMAP
000F80
007F80
01FF80
03F800
0FC000
0F0000
1E0000
3C0000
3C0000
780000
780000
7BF800
FFFF00
FFFF80
FC0FC0
F003C0
F003E0
F001E0
F001E0
F001E0
F001E0
F001E0
7801E0
7803C0
3C07C0
3E0F80
1FFF00
0FFE00
03F800
ENDCHAR
STARTCHAR seven
ENCODING 55
SWIDTH 564 0
DWIDTH 24 0
BBX 18 29 3 0
BITMAP
FFFFC0
FFFFC0
FFFFC0
000380
000780
000F00
000E00
001E00
003C00
003C00
007800
007800
00F000
00F000
00E000
01E000
01E000
03C000
03C000
03C000
038000
078000
078000
078000
078000
0F0000
0F0000
0F0000
0F0000
ENDCHAR
STARTCHAR eight
ENCODING 56
SWIDTH 564 0
DWIDTH 24 0
BBX 20 29 2 0
BITMAP
01FC00
07FF00
1FFF80
3E0FC0
3C03C0
7801E0
7801E0
7801E0
7801E0
7C03E0
7E03C0
3F07C0
1FDF80
0FFF00
07FE00
1FFF80
3E3FC0
7C0FE0
7803E0
F001F0
F000F0
F000F0
F000F0
F000F0
7801E0
7E07E0
3FFFC0
1FFF80
03FC00
ENDCHAR
STARTCHAR nine
ENCODING 57
SWIDTH 564 0
DWIDTH 24 0
BBX 19 29 2 0
BITMAP
03F800
0FFE00
1FFF00
3E0F80
7C0780
7803C0
F003C0
F003E0
F001E0
F001E0
F001E0
F001E0
F801E0
7801E0
7E07E0
3FFFE0
1FFFE0
03FBC0
0003C0
0003C0
0007C0
000780
000F00
001F00
007E00
01FC00
3FF000
3FC000
3E0000
ENDCHAR
STARTCHAR colon
ENCODING 58
SWIDTH 246 0
DWIDTH 10 0
BBX 6 23 2 0
BITMAP
78
FC
FC
FC
FC
78
00
00
00
00
00
00
00
00
00
00
00
78
FC
FC
FC
FC
78
ENDCHAR
STARTCHAR semicolon
ENCODING 59
SWIDTH 246 0
DWIDTH 10 0
BBX 7 30 1 -7
BITMAP
3C
7E
7E
7E
7E
3C
00
00
00
00
00
00
00
00
00
00
00
00
3C
3C
3C
3C
3C
3C
38
78
78
70
F0
60
ENDCHAR
STARTCHAR less
ENCODING 60
SWIDTH 564 0
DWIDTH 24 0
BBX 18 19 3 3
BITMAP
000080
0003C0
000FC0
003F80
00FC00
03F000
1FC000
7F0000
FC0000
F00000
FC0000
7F0000
0FC000
03F000
00FC00
003F80
000FC0
0003C0
000080
ENDCHAR
STARTCHAR equal
ENCODING 61
SWIDTH 564 0
DWIDTH 24 0
BBX 19 12 3 6
BITMAP
FFFFE0
FFFFE0
FFFFE0
000000
000000
000000
000000
000000
000000
FFFFE0
FFFFE0
FFFFE0
ENDCHAR
STARTCHAR greater
ENCODING 62
SWIDTH 564 0
DWIDTH 24 0
BBX 19 19 2 3
BITMAP
400000
F00000
FE0000
3F8000
0FE000
03F800
00FF00
001FC0
0007E0
0001E0
0007E0
001FC0
00FE00
03F800
0FE000
3F8000
FE0000
F00000
400000
ENDCHAR
STARTCHAR question
ENCODING 63
SWIDTH 404 0
DWIDTH 17 0
BBX 15 29 1 0
BITMAP
1FE0
FFF8
FFFC
607C
003E
001E
001E
001E
003E
003C
0078
00F0
01E0
03C0
0780
0F80
0F00
0F00
0F00
0000
0000
0000
0000
0600
0F00
0F00
0F00
0F00
0600
ENDCHAR
STARTCHAR at
ENCODING 64
SWIDTH 950 0
DWIDTH 40 0
BBX 34 35 3 -6
BITMAP
0007FC0000
003FFF8000
00FFFFE000
03F807F000
07E000F800
0F80007C00
1F00003E00
1E00001F00
3C01FC0F00
3C07FF0780
780FFF0780
781F0F0780
783C0F03C0
F03C0F03C0
F0780F03C0
F0780F03C0
F0780F03C0
F0780F03C0
F0780F03C0
F0780F03C0
F0780F0780
F03C0F0780
F83C0F0F80
783E0F1F00
781FFFFE00
7C0FFFFC00
3C03F1F800
3E00000000
1F00000000
0F80000000
07E0000000
03FC010000
01FFFF0000
003FFF0000
0007FE0000
ENDCHAR
STARTCHAR A
ENCODING 65
SWIDTH 663 0
DWIDTH 28 0
BBX 28 29 0 0
BITMAP
001F0000
001F0000
003F8000
003F8000
007FC000
007BC000
007BC000
00F9E000
00F1E000
00F1F000
01E0F000
01E0F800
03E07800
03C07800
03C03C00
07803C00
07803E00
0F801E00
0FFFFE00
0FFFFF00
1FFFFF00
1E000780
3E000780
3C0007C0
3C0003C0
7C0003C0
780001E0
780001E0
F00000F0
ENDCHAR
STARTCHAR B
ENCODING 66
SWIDTH 643 0
DWIDTH 27 0
BBX 21 29 4 0
BITMAP
7FF800
FFFF00
FFFFC0
F00FE0
F003E0
F001F0
F000F0
F000F0
F000F0
F001F0
F001E0
F007C0
FFFF80
FFFF80
FFFFC0
F007F0
F001F0
F000F8
F00078
F00078
F00078
F00078
F00078
F000F0
F001F0
F007E0
FFFFC0
FFFF80
7FFC00
ENDCHAR
STARTCHAR C
ENCODING 67
SWIDTH 620 0
DWIDTH 26 0
BBX 22 29 3 0
BITMAP
003FC0
01FFF8
03FFFC
0FE078
1F0008
1E0000
3C0000
7C0000
780000
780000
F00000
F00000
F00000
F00000
F00000
F00000
F00000
F00000
F00000
780000
780000
7C0000
3C0000
3E0000
1F0000
0FC038
07FFFC
01FFF8
007FC0
ENDCHAR
STARTCHAR D
ENCODING 68
SWIDTH 713 0
DWIDTH 30 0
BBX 23 29 4 0
BITMAP
7FF000
FFFE00
FFFF80
F00FE0
F003F0
F000F0
F00078
F0007C
F0003C
F0003C
F0001E
F0001E
F0001E
F0001E
F0001E
F0001E
F0001E
F0001E
F0001E
F0003C
F0003C
F0007C
F00078
F000F0
F003F0
F00FE0
FFFF80
FFFE00
7FF000
ENDCHAR
STARTCHAR E
ENCODING 69
SWIDTH 571 0
DWIDTH 24 0
BBX 18 29 4 0
BITMAP
FFFF80
FFFF80
FFFF80
F00000
F00000
F00000
F00000
F00000
F00000
F00000
F00000
F00000
FFFE00
FFFE00
FFFE00
F00000
F00000
F00000
F00000
F00000
F00000
F00000
F00000
F00000
F00000
F00000
FFFFC0
FFFFC0
FFFFC0
ENDCHAR
STARTCHAR F
ENCODING 70
SWIDTH 537 0
DWIDTH 23 0
BBX 18 29 4 0
BITMAP
FFFFC0
FFFFC0
FFFFC0
F00000
F00000
F00000
F00000
F00000
F00000
F00000
F00000
F00000
F00000
FFFF00
FFFF00
FFFF00
F00000
F00000
F00000
F00000
F00000
F00000
F00000
F00000
F00000
F00000
F00000
F00000
F00000
ENDCHAR
STARTCHAR G
ENCODING 71
SWIDTH 672 0
DWIDTH 28 0
BBX 21 29 3 0
BITMAP
007F80
01FFF0
07FFF8
0FC070
1F0010
3E0000
3C0000
7C0000
780000
780000
F00000
F00000
F00000
F00000
F00000
F00078
F00078
F00078
F00078
780078
780078
780078
3C0078
3E0078
1F0078
0FC078
07FFF8
03FFF8
007FC0
ENDCHAR
STARTCHAR H
ENCODING 72
SWIDTH 705 0
DWIDTH 30 0
BBX 22 29 4 0
BITMAP
F0003C
F0003C
F0003C
F0003C
F0003C
F0003C
F0003C
F0003C
F0003C
F0003C
F0003C
F0003C
F0003C
FFFFFC
FFFFFC
FFFFFC
F0003C
F0003C
F0003C
F0003C
F0003C
F0003C
F0003C
F0003C
F0003C
F0003C
F0003C
F0003C
F0003C
ENDCHAR
STARTCHAR I
ENCODING 73
SWIDTH 269 0
DWIDTH 12 0
BBX 4 29 4 0
BITMAP
F0
F0
F0
F0
F0
F0
F0
F0
F0
F0
F0
F0
F0
F0
F0
F0
F0
F0
F0
F0
F0
F0
F0
F0
F0
F0
F0
F0
F0
ENDCHAR
STARTCHAR J
ENCODING 74
SWIDTH 500 0
DWIDTH 21 0
BBX 17 29 0 0
BITMAP
000780
000780
000780
000780
000780
000780
000780
000780
000780
000780
000780
000780
000780
000780
000780
000780
000780
000780
000780
000780
000780
000780
000780
000F00
400F00
703F00
FFFE00
7FFC00
0FE000
ENDCHAR
STARTCHAR K
ENCODING 75
SWIDTH 629 0
DWIDTH 26 0
BBX 22 29 4 0
BITMAP
F001F8
F001F0
F003E0
F007C0
F00F80
F01F00
F03E00
F07C00
F0F800
F1F000
F3E000
F7C000
FFC000
FF8000
FF8000
FFE000
F7F000
F3F800
F1FC00
F07E00
F03F00
F01F00
F00F80
F007C0
F007E0
F003F0
F001F0
F000F8
F0007C
ENDCHAR
STARTCHAR L
ENCODING 76
SWIDTH 519 0
DWIDTH 22 0
BBX 17 29 4 0
BITMAP
F00000
F00000
F00000
F00000
F00000
F00000
F00000
F00000
F00000
F00000
F00000
F00000
F00000
F00000
F00000
F00000
F00000
F00000
F00000
F00000
F00000
F00000
F00000
F00000
F00000
F00000
FFFF80
FFFF80
FFFF80
ENDCHAR
STARTCHAR M
ENCODING 77
SWIDTH 871 0
DWIDTH 38 0
BBX 32 29 3 0
BITMAP
3C00003C
3E00007C
3E00007C
3F0000FC
3F0000FC
7F8001FC
7F8001FE
7BC003DE
7BC003DE
79E0079E
79E0079E
78F00F1E
78F00F1E
78700E1E
78781E1E
78381C1E
783C3C1E
781C381E
F81E781E
F00E701E
F00E700F
F00FF00F
F007E00F
F007E00F
F003C00F
F000000F
F000000F
F000000F
F000000F
ENDCHAR
STARTCHAR N
ENCODING 78
SWIDTH 728 0
DWIDTH 31 0
BBX 23 29 4 0
BITMAP
F0001E
F8001E
FC001E
FE001E
FF001E
FF001E
FF801E
F7C01E
F3E01E
F1E01E
F1F01E
F0F81E
F0781E
F03C1E
F03E1E
F01E1E
F00F1E
F00F9E
F0079E
F003DE
F001DE
F001FE
F000FE
F0007E
F0007E
F0003E
F0003E
F0001E
F0000E
ENDCHAR
STARTCHAR O
ENCODING 79
SWIDTH 778 0
DWIDTH 33 0
BBX 27 29 3 0
BITMAP
003FC000
01FFF000
07FFFC00
0FC07E00
1F001F00
3E000F80
3C000780
7C0007C0
780003C0
780003C0
F00001E0
F00001E0
F00001E0
F00001E0
F00001E0
F00001E0
F00001E0
F00001E0
F00001E0
780003C0
780003C0
7C0007C0
3C000780
3E000F80
1F001F00
0FC07E00
07FFFC00
01FFF000
003FC000
ENDCHAR
STARTCHAR P
ENCODING 80
SWIDTH 608 0
DWIDTH 26 0
BBX 21 29 4 0
BITMAP
7FF800
FFFF00
FFFFC0
F007E0
F001F0
F000F0
F00078
F00078
F00078
F00078
F00078
F00078
F000F0
F001F0
F00FE0
FFFFC0
FFFF00
FFF800
F00000
F00000
F00000
F00000
F00000
F00000
F00000
F00000
F00000
F00000
F00000
ENDCHAR
STARTCHAR Q
ENCODING 81
SWIDTH 778 0
DWIDTH 33 0
BBX 27 37 3 -8
BITMAP
003FC000
01FFF000
07FFFC00
0FC07E00
1F001F00
3E000F80
3C000780
7C0007C0
780003C0
780003C0
F00001E0
F00001E0
F00001E0
F00001E0
F00001E0
F00001E0
F00001E0
F00001E0
F00001E0
780003C0
780003C0
7C0007C0
3C000780
3E000F00
1F001F00
0FC07E00
07FFF800
01FFF000
007F8000
000F0000
000F8000
0007C000
0003E000
0003FC00
0000FF80
00003F80
00000700
ENDCHAR
STARTCHAR R
ENCODING 82
SWIDTH 629 0
DWIDTH 26 0
BBX 21 29 4 0
BITMAP
7FF000
FFFE00
FFFF00
F01F80
F007C0
F003C0
F001E0
F001E0
F001E0
F001E0
F001E0
F001E0
F003C0
F007C0
F01F80
FFFF00
FFFE00
FFF800
F07C00
F03E00
F01F00
F00F00
F00F80
F007C0
F007C0
F003E0
F001E0
F001F0
F000F8
ENDCHAR
STARTCHAR S
ENCODING 83
SWIDTH 532 0
DWIDTH 22 0
BBX 20 29 1 0
BITMAP
01FE00
0FFFC0
1FFFE0
3F01C0
3C0040
780000
780000
780000
780000
7C0000
3E0000
3F8000
1FF000
0FFC00
03FF00
007FC0
001FE0
0007E0
0001F0
0001F0
0000F0
0000F0
0000F0
0000F0
4001E0
7807E0
FFFFC0
7FFF00
0FFC00
ENDCHAR
STARTCHAR T
ENCODING 84
SWIDTH 565 0
DWIDTH 24 0
BBX 22 29 1 0
BITMAP
FFFFFC
FFFFFC
FFFFFC
007800
007800
007800
007800
007800
007800
007800
007800
007800
007800
007800
007800
007800
007800
007800
007800
007800
007800
007800
007800
007800
007800
007800
007800
007800
007800
ENDCHAR
STARTCHAR U
ENCODING 85
SWIDTH 688 0
DWIDTH 29 0
BBX 21 29 4 0
BITMAP
F00078
F00078
F00078
F00078
F00078
F00078
F00078
F00078
F00078
F00078
F00078
F00078
F00078
F00078
F00078
F00078
F00078
F00078
F00078
F00078
F00078
F00078
7800F0
7800F0
3C01E0
3F07E0
1FFFC0
07FF00
01FC00
ENDCHAR
STARTCHAR V
ENCODING 86
SWIDTH 656 0
DWIDTH 26 0
BBX 26 29 0 0
BITMAP
F00003C0
F8000780
78000780
78000780
7C000F00
3C000F00
3C001F00
1E001E00
1E001E00
1F003E00
0F003C00
0F003C00
0F807C00
07807800
07807800
07C0F800
03C0F000
03E1F000
01E1E000
01E1E000
01F3E000
00F3C000
00FFC000
007F8000
007F8000
007F8000
003F0000
003F0000
001E0000
ENDCHAR
STARTCHAR W
ENCODING 87
SWIDTH 929 0
DWIDTH 39 0
BBX 37 29 1 0
BITMAP
F000000078
F000000078
F8000000F8
7800F800F0
7800F800F0
7800F800F0
7801FC00F0
7C01FC01F0
7C01FC01E0
3C03DC01E0
3C03DE01E0
3C03DE01E0
3E038E03E0
3E078F03C0
1E078F03C0
1E0F8F83C0
1F0F0787C0
1F0F0787C0
0F1F07C780
0F1E03C780
0F9E03CF80
0FBC03EF80
07BC01EF00
07BC01EF00
07F800FF00
07F800FE00
03F800FE00
03F0007E00
03F0007E00
ENDCHAR
STARTCHAR X
ENCODING 88
SWIDTH 631 0
DWIDTH 27 0
BBX 25 29 1 0
BITMAP
F8001F00
7C003E00
3C003C00
3E007C00
1F00F800
0F00F000
0781F000
07C3E000
03E3C000
01E7C000
01FF8000
00FF0000
007F0000
007E0000
003E0000
007F0000
00FF0000
01FF8000
01F7C000
03E3E000
07C1E000
0781F000
0F80F800
1F007C00
1E007C00
3E003E00
7C001E00
7C001F00
F8000F80
ENDCHAR
STARTCHAR Y
ENCODING 89
SWIDTH 598 0
DWIDTH 24 0
BBX 24 29 0 0
BITMAP
F8001F
78001E
7C003E
3C003C
3E0078
1E0078
0F00F0
0F81F0
0781E0
07C3E0
03C7C0
01E780
01FF80
00FF00
00FF00
007E00
003C00
003C00
003C00
003C00
003C00
003C00
003C00
003C00
003C00
003C00
003C00
003C00
003C00
ENDCHAR
STARTCHAR Z
ENCODING 90
SWIDTH 573 0
DWIDTH 24 0
BBX 21 29 1 0
BITMAP
7FFFF8
7FFFF8
7FFFF8
0000F8
0001F0
0001E0
0003C0
0007C0
000F80
000F00
001E00
003E00
007C00
007800
00F000
01F000
01E000
03C000
07C000
078000
0F8000
1F0000
1E0000
3E0000
3C0000
7C0000
FFFFF8
FFFFF8
FFFFF8
ENDCHAR
STARTCHAR bracketleft
ENCODING 91
SWIDTH 329 0
DWIDTH 14 0
BBX 10 41 4 -8
BITMAP
FFC0
FFC0
FFC0
F000
F000
F000
F000
F000
F000
F000
F000
F000
F000
F000
F000
F000
F000
F000
F000
F000
F000
F000
F000
F000
F000
F000
F000
F000
F000
F000
F000
F000
F000
F000
F000
F000
F000
F000
FFC0
FFC0
FFC0
ENDCHAR
STARTCHAR backslash
ENCODING 92
SWIDTH 384 0
DWIDTH 16 0
BBX 18 41 -1 -8
BITMAP
E00000
700000
700000
700000
380000
380000
380000
1C0000
1C0000
1E0000
0E0000
0E0000
070000
070000
070000
038000
038000
038000
01C000
01C000
01E000
00E000
00E000
007000
007000
007000
003800
003800
003800
001C00
001C00
001E00
000E00
000E00
000700
000700
000700
000380
000380
000380
0001C0
ENDCHAR
STARTCHAR bracketright
ENCODING 93
SWIDTH 329 0
DWIDTH 14 0
BBX 10 41 0 -8
BITMAP
FFC0
FFC0
FFC0
03C0
03C0
03C0
03C0
03C0
03C0
03C0
03C0
03C0
03C0
03C0
03C0
03C0
03C0
03C0
03C0
03C0
03C0
03C0
03C0
03C0
03C0
03C0
03C0
03C0
03C0
03C0
03C0
03C0
03C0
03C0
03C0
03C0
03C0
03C0
FFC0
FFC0
FFC0
ENDCHAR
STARTCHAR asciicircum
ENCODING 94
SWIDTH 564 0
DWIDTH 24 0
BBX 19 16 2 13
BITMAP
00E000
01F000
01F000
03F800
07BC00
07BC00
0F1E00
0F1E00
1E0F00
1E0F00
3C0780
380380
7803C0
F001E0
F001E0
200080
ENDCHAR
STARTCHAR underscore
ENCODING 95
SWIDTH 492 0
DWIDTH 21 0
BBX 21 3 0 -8
BITMAP
FFFFF8
FFFFF8
FFFFF8
ENDCHAR
STARTCHAR grave
ENCODING 96
SWIDTH 376 0
DWIDTH 16 0
BBX 8 8 3 24
BITMAP
20
70
F8
3C
1E
0F
07
02
ENDCHAR
STARTCHAR a
ENCODING 97
SWIDTH 522 0
DWIDTH 22 0
BBX 17 22 2 0
BITMAP
0FF000
3FFC00
3FFE00
301F00
000F00
000F80
000780
000780
000780
07FF80
1FFF80
7FFF80
7C0780
F80780
F00780
F00780
F00780
F80780
7C0780
7FFF80
3FFF80
0FFE00
ENDCHAR
STARTCHAR b
ENCODING 98
SWIDTH 589 0
DWIDTH 25 0
BBX 20 32 3 0
BITMAP
700000
F00000
F00000
F00000
F00000
F00000
F00000
F00000
F00000
F00000
F3F800
FFFE00
FFFF80
FC0FC0
F003C0
F001E0
F001E0
F000F0
F000F0
F000F0
F000F0
F000F0
F000F0
F000F0
F001F0
F001E0
F003E0
F007C0
F00F80
FFFF00
FFFE00
1FF000
ENDCHAR
STARTCHAR c
ENCODING 99
SWIDTH 465 0
DWIDTH 20 0
BBX 17 22 2 0
BITMAP
01FE00
07FF80
0FFF80
1F0100
3C0000
780000
780000
F80000
F00000
F00000
F00000
F00000
F00000
F00000
F00000
780000
780000
3C0000
3F0180
1FFF80
07FF80
01FE00
ENDCHAR
STARTCHAR d
ENCODING 100
SWIDTH 589 0
DWIDTH 25 0
BBX 20 32 2 0
BITMAP
000070
0000F0
0000F0
0000F0
0000F0
0000F0
0000F0
0000F0
0000F0
0000F0
01FCF0
07FFF0
1FFFF0
3F03F0
3C00F0
7800F0
7800F0
F000F0
F000F0
F000F0
F000F0
F000F0
F000F0
F000F0
F800F0
7800F0
7C00F0
3E00F0
1F00F0
0FFFF0
07FFF0
00FF80
ENDCHAR
STARTCHAR e
ENCODING 101
SWIDTH 559 0
DWIDTH 23 0
BBX 19 22 2 0
BITMAP
01F800
07FE00
1FFF80
3F0F80
3C07C0
7803C0
7801E0
F001E0
F001E0
FFFFE0
FFFFE0
FFFFE0
F00000
F00000
F00000
780000
780000
3C0000
3F0180
1FFF80
0FFF80
01FE00
ENDCHAR
STARTCHAR f
ENCODING 102
SWIDTH 386 0
DWIDTH 16 0
BBX 13 32 3 0
BITMAP
07F0
1FF8
3FF8
7C00
7800
F000
F000
F000
F000
F000
FFF0
FFF0
FFF0
F000
F000
F000
F000
F000
F000
F000
F000
F000
F000
F000
F000
F000
F000
F000
F000
F000
F000
F000
ENDCHAR
STARTCHAR g
ENCODING 103
SWIDTH 578 0
DWIDTH 24 0
BBX 19 30 2 -8
BITMAP
01FF00
07FFE0
1FFFE0
3F01E0
3C01E0
7801E0
7801E0
F001E0
F001E0
F001E0
F001E0
F001E0
F001E0
F001E0
F801E0
7801E0
7C01E0
3F07E0
1FFFE0
0FFFE0
03F9E0
0001E0
0001E0
0001E0
0003C0
0007C0
300F80
7FFF80
7FFE00
1FF800
ENDCHAR
STARTCHAR h
ENCODING 104
SWIDTH 571 0
DWIDTH 24 0
BBX 18 32 3 0
BITMAP
700000
F00000
F00000
F00000
F00000
F00000
F00000
F00000
F00000
F00000
F7F800
FFFE00
FFFF00
F81F80
F00780
F00780
F003C0
F003C0
F003C0
F003C0
F003C0
F003C0
F003C0
F003C0
F003C0
F003C0
F003C0
F003C0
F003C0
F003C0
F003C0
F003C0
ENDCHAR
STARTCHAR i
ENCODING 105
SWIDTH 253 0
DWIDTH 10 0
BBX 6 31 2 0
BITMAP
78
78
FC
78
78
00
00
00
00
78
78
78
78
78
78
78
78
78
78
78
78
78
78
78
78
78
78
78
78
78
78
ENDCHAR
STARTCHAR j
ENCODING 106
SWIDTH 253 0
DWIDTH 10 0
BBX 11 39 -3 -8
BITMAP
03C0
03C0
07E0
03C0
03C0
0000
0000
0000
0000
03C0
03C0
03C0
03C0
03C0
03C0
03C0
03C0
03C0
03C0
03C0
03C0
03C0
03C0
03C0
03C0
03C0
03C0
03C0
03C0
03C0
03C0
03C0
03C0
03C0
0780
0F80
FF00
FF00
FC00
ENDCHAR
STARTCHAR k
ENCODING 107
SWIDTH 522 0
DWIDTH 22 0
BBX 18 32 3 0
BITMAP
700000
F00000
F00000
F00000
F00000
F00000
F00000
F00000
F00000
F00000
F01F80
F01F00
F03E00
F07C00
F0F800
F1F000
F3E000
F7E000
FFC000
FF8000
FFC000
FFC000
F7E000
F3F000
F1F800
F0FC00
F07E00
F03E00
F03F00
F01F80
F00F80
F00FC0
ENDCHAR
STARTCHAR l
ENCODING 108
SWIDTH 273 0
DWIDTH 11 0
BBX 7 32 3 0
BITMAP
70
F0
F0
F0
F0
F0
F0
F0
F0
F0
F0
F0
F0
F0
F0
F0
F0
F0
F0
F0
F0
F0
F0
F0
F0
F0
F0
F0
F8
7E
7E
1E
ENDCHAR
STARTCHAR m
ENCODING 109
SWIDTH 861 0
DWIDTH 36 0
BBX 30 22 3 0
BITMAP
1FF03F80
FFFCFFE0
FFFFFFF0
F01FC0F8
F00F0078
F00F807C
F007803C
F007803C
F007803C
F007803C
F007803C
F007803C
F007803C
F007803C
F007803C
F007803C
F007803C
F007803C
F007803C
F007803C
F007803C
F007803C
ENDCHAR
STARTCHAR n
ENCODING 110
SWIDTH 574 0
DWIDTH 24 0
BBX 18 22 3 0
BITMAP
1FF800
FFFE00
FFFF00
F01F80
F00780
F00780
F003C0
F003C0
F003C0
F003C0
F003C0
F003C0
F003C0
F003C0
F003C0
F003C0
F003C0
F003C0
F003C0
F003C0
F003C0
F003C0
ENDCHAR
STARTCHAR o
ENCODING 111
SWIDTH 590 0
DWIDTH 25 0
BBX 21 22 2 0
BITMAP
01FC00
07FF00
1FFFC0
3F07C0
3C01E0
7C01F0
7800F0
F800F8
F00078
F00078
F00078
F00078
F00078
F00078
F800F8
7800F0
7801F0
3C01E0
3F07E0
1FFF80
07FF00
01FC00
ENDCHAR
STARTCHAR p
ENCODING 112
SWIDTH 589 0
DWIDTH 25 0
BBX 20 30 3 -8
BITMAP
1FF000
FFFE00
FFFF00
F00F80
F007C0
F003E0
F001E0
F001F0
F000F0
F000F0
F000F0
F000F0
F000F0
F000F0
F000F0
F001E0
F001E0
F003C0
FC0FC0
FFFF80
FFFE00
F3F800
F00000
F00000
F00000
F00000
F00000
F00000
F00000
F00000
ENDCHAR
STARTCHAR q
ENCODING 113
SWIDTH 589 0
DWIDTH 25 0
BBX 20 30 2 -8
BITMAP
00FF80
07FFF0
0FFFF0
1F00F0
3E00F0
7C00F0
7800F0
F800F0
F000F0
F000F0
F000F0
F000F0
F000F0
F000F0
F000F0
7800F0
7800F0
3C00F0
3F03F0
1FFFF0
07FFF0
01FCF0
0000F0
0000F0
0000F0
0000F0
0000F0
0000F0
0000F0
0000F0
ENDCHAR
STARTCHAR r
ENCODING 114
SWIDTH 386 0
DWIDTH 16 0
BBX 13 22 3 0
BITMAP
1FF8
FFF8
FFF8
F000
F000
F000
F000
F000
F000
F000
F000
F000
F000
F000
F000
F000
F000
F000
F000
F000
F000
F000
ENDCHAR
STARTCHAR s
ENCODING 115
SWIDTH 446 0
DWIDTH 19 0
BBX 15 22 2 0
BITMAP
07F0
3FFC
7FFC
7C08
F000
F000
F000
F800
FC00
7F80
7FF0
1FF8
03FC
007E
003E
001E
001E
001E
E03C
FFFC
FFF8
3FC0
ENDCHAR
STARTCHAR t
ENCODING 116
SWIDTH 402 0
DWIDTH 17 0
BBX 13 29 3 0
BITMAP
7000
F000
F000
F000
F000
F000
F000
FFF0
FFF0
FFF0
F000
F000
F000
F000
F000
F000
F000
F000
F000
F000
F000
F000
F000
F000
F800
7C10
7FF8
3FF8
0FE0
ENDCHAR
STARTCHAR u
ENCODING 117
SWIDTH 574 0
DWIDTH 24 0
BBX 18 22 3 0
BITMAP
F003C0
F003C0
F003C0
F003C0
F003C0
F003C0
F003C0
F003C0
F003C0
F003C0
F003C0
F003C0
F003C0
F003C0
F003C0
F003C0
7803C0
7803C0
7E03C0
3FFFC0
1FFFC0
07FE00
ENDCHAR
STARTCHAR v
ENCODING 118
SWIDTH 502 0
DWIDTH 22 0
BBX 20 22 1 0
BITMAP
F000F0
F801F0
7801E0
7801E0
7801E0
3C03C0
3C03C0
3C03C0
1E0780
1E0780
1E0780
0F0F00
0F0F00
0F9F00
079E00
079E00
03FC00
03FC00
03FC00
01F800
01F800
00F000
ENDCHAR
STARTCHAR w
ENCODING 119
SWIDTH 777 0
DWIDTH 33 0
BBX 31 22 1 0
BITMAP
F003C01E
F007C01E
7807C03C
7807C03C
7807E03C
3C0FE03C
3C0FE078
3C0EE078
1C0EF078
1E0EF078
1E1EF0F0
0E1C78F0
0F1C78F0
0F1C78E0
073C3DE0
07B83DE0
07B83DC0
03F81FC0
03F01FC0
01F01F80
01F00F80
00F00F80
ENDCHAR
STARTCHAR x
ENCODING 120
SWIDTH 511 0
DWIDTH 21 0
BBX 19 22 1 0
BITMAP
F807C0
7C0780
3C0F00
3E1F00
1F1E00
0F3E00
0FFC00
07F800
03F800
03F000
01F000
03F000
03F800
07FC00
0FFC00
0F3E00
1F1F00
3E0F00
3E0F80
7C07C0
7807C0
F803E0
ENDCHAR
STARTCHAR y
ENCODING 121
SWIDTH 497 0
DWIDTH 22 0
BBX 21 30 0 -8
BITMAP
780078
3C00F8
3C00F0
3C00F0
1E01F0
1E01E0
1E01E0
0F03E0
0F03C0
0783C0
0787C0
078780
03C780
03C780
03CF00
01EF00
01EF00
00EE00
00FE00
00FE00
007C00
007C00
007C00
007800
00F800
00F000
03F000
FFE000
FF8000
FE0000
ENDCHAR
STARTCHAR z
ENCODING 122
SWIDTH 471 0
DWIDTH 20 0
BBX 16 22 2 0
BITMAP
7FFF
7FFF
7FFF
001F
003E
007C
0078
00F8
01F0
03E0
03E0
07C0
0F80
0F80
1F00
1E00
3E00
7C00
7C00
FFFF
FFFF
FFFF
ENDCHAR
STARTCHAR braceleft
ENCODING 123
SWIDTH 333 0
DWIDTH 14 0
BBX 12 41 2 -8
BITMAP
00F0
03F0
07F0
0780
0F00
0F00
0F00
0F00
0F00
0F00
0F00
0F00
0F00
0F00
0F00
0F00
0F00
1F00
3E00
FC00
F800
FC00
3E00
1E00
0F00
0F00
0F00
0F00
0F00
0F00
0F00
0F00
0F00
0F00
0F00
0F00
0F00
0780
07F0
03F0
00F0
ENDCHAR
STARTCHAR bar
ENCODING 124
SWIDTH 279 0
DWIDTH 12 0
BBX 3 41 4 -8
BITMAP
E0
E0
E0
E0
E0
E0
E0
E0
E0
E0
E0
E0
E0
E0
E0
E0
E0
E0
E0
E0
E0
E0
E0
E0
E0
E0
E0
E0
E0
E0
E0
E0
E0
E0
E0
E0
E0
E0
E0
E0
E0
ENDCHAR
STARTCHAR braceright
ENCODING 125
SWIDTH 333 0
DWIDTH 14 0
BBX 12 41 0 -8
BITMAP
F000
FC00
FE00
1E00
0F00
0F00
0F00
0F00
0F00
0F00
0F00
0F00
0F00
0F00
0F00
0F00
0F00
0F80
07C0
03F0
01F0
03F0
07C0
0F80
0F00
0F00
0F00
0F00
0F00
0F00
0F00
0F00
0F00
0F00
0F00
0F00
1F00
1E00
FE00
FC00
F000
ENDCHAR
STARTCHAR asciitilde
ENCODING 126
SWIDTH 564 0
DWIDTH 24 0
BBX 20 7 2 9
BITMAP
0F0060
3F8070
7FE0F0
78F1E0
F07FE0
E01FC0
600F00
ENDCHAR
STARTCHAR ordmasculine
ENCODING 186
SWIDTH 446 0
DWIDTH 19 0
BBX 15 15 2 14
BITMAP
07C0
1FF0
3FF8
783C
701C
E00E
E00E
E00E
E00E
E00E
701C
783C
3FF8
1FF0
07C0
ENDCHAR
ENDFONT
