STARTFONT 2.1
FONT -FontForge-Ubuntu-Book-R-Normal--32-310-75-75-P-169-ISO10646-1
SIZE 31 75 75
FONTBOUNDINGBOX 32 31 -2 -6
COMMENT "Generated by fontforge, http://fontforge.sourceforge.net"
COMMENT "Copyright 2011 Canonical Ltd.  Licensed under the Ubuntu Font Licence 1.0"
STARTPROPERTIES 39
FOUNDRY "FontForge"
FAMILY_NAME "Ubuntu"
WEIGHT_NAME "Book"
SLANT "R"
SETWIDTH_NAME "Normal"
ADD_STYLE_NAME ""
PIXEL_SIZE 32
POINT_SIZE 310
RESOLUTION_X 75
RESOLUTION_Y 75
SPACING "P"
AVERAGE_WIDTH 169
CHARSET_REGISTRY "ISO10646"
CHARSET_ENCODING "1"
FONTNAME_REGISTRY ""
CHARSET_COLLECTIONS "ISO10646-1"
FONT_NAME "Ubuntu"
FACE_NAME "Ubuntu"
COPYRIGHT "Copyright 2011 Canonical Ltd.  Licensed under the Ubuntu Font Licence 1.0"
FONT_VERSION "0.83"
FONT_ASCENT 26
FONT_DESCENT 6
UNDERLINE_POSITION -5
UNDERLINE_THICKNESS 3
X_HEIGHT 16
CAP_HEIGHT 21
RAW_ASCENT 800
RAW_DESCENT 200
RELATIVE_WEIGHT 40
RELATIVE_SETWIDTH 50
SUPERSCRIPT_X 0
SUPERSCRIPT_Y 15
SUPERSCRIPT_SIZE 20
SUBSCRIPT_X 0
SUBSCRIPT_Y 4
SUBSCRIPT_SIZE 20
FIGURE_WIDTH 18
AVG_LOWERCASE_WIDTH 166
AVG_UPPERCASE_WIDTH 205
ENDPROPERTIES
CHARS 95
STARTCHAR exclam
ENCODING 33
SWIDTH 276 0
DWIDTH 9 0
BBX 5 22 2 0
BITMAP
70
70
70
70
70
70
70
70
70
70
70
70
70
70
20
00
00
00
70
F8
F8
70
ENDCHAR
STARTCHAR quotedbl
ENCODING 34
SWIDTH 418 0
DWIDTH 13 0
BBX 9 8 2 17
BITMAP
E380
E380
E380
E380
E380
E300
E300
4300
ENDCHAR
STARTCHAR numbersign
ENCODING 35
SWIDTH 667 0
DWIDTH 21 0
BBX 17 22 2 0
BITMAP
038E00
038E00
038E00
071C00
071C00
071C00
FFFF80
FFFF80
FFFF80
0E3800
0E3800
0E3800
0E3800
FFFF80
FFFF80
FFFF80
1C7000
1C7000
1C7000
38E000
38E000
38E000
ENDCHAR
STARTCHAR dollar
ENCODING 36
SWIDTH 564 0
DWIDTH 18 0
BBX 14 29 2 -4
BITMAP
0380
0380
0380
0380
0FF0
3FF8
7FF8
F010
E000
E000
E000
F000
7E00
3F80
0FE0
03F0
0078
003C
001C
001C
001C
603C
FFF8
FFF0
3FE0
0380
0380
0380
0380
ENDCHAR
STARTCHAR percent
ENCODING 37
SWIDTH 858 0
DWIDTH 27 0
BBX 23 22 2 0
BITMAP
1F00E0
7FC1C0
71C1C0
E0E380
E0E780
E0E700
E0EE00
E0EE00
71DC00
7FDC00
1F3800
0039F0
0077FC
00771C
00EE0E
00EE0E
01CE0E
03CE0E
038E0E
07071C
0707FC
0E01F0
ENDCHAR
STARTCHAR ampersand
ENCODING 38
SWIDTH 666 0
DWIDTH 21 0
BBX 19 22 1 0
BITMAP
07E000
0FF800
1FF800
3C3C00
381C00
381C00
383C00
18F800
1FF000
0FC000
1F8000
3F80C0
7DC1C0
70E1C0
E07380
E03F80
E01F00
E00E00
781F00
7FFF80
3FF9C0
0FC0E0
ENDCHAR
STARTCHAR quotesingle
ENCODING 39
SWIDTH 241 0
DWIDTH 8 0
BBX 3 8 2 17
BITMAP
E0
E0
E0
E0
E0
E0
E0
40
ENDCHAR
STARTCHAR parenleft
ENCODING 40
SWIDTH 324 0
DWIDTH 10 0
BBX 8 31 3 -6
BITMAP
02
07
0E
1C
1C
38
38
70
70
70
70
E0
E0
E0
E0
E0
E0
E0
E0
E0
70
70
70
70
38
38
1C
1C
0E
07
02
ENDCHAR
STARTCHAR parenright
ENCODING 41
SWIDTH 324 0
DWIDTH 10 0
BBX 8 31 -1 -6
BITMAP
40
E0
70
78
38
1C
1C
0E
0E
0E
0E
07
07
07
07
07
07
07
07
07
0E
0E
0E
0E
1C
1C
38
78
70
E0
40
ENDCHAR
STARTCHAR asterisk
ENCODING 42
SWIDTH 480 0
DWIDTH 15 0
BBX 13 12 1 10
BITMAP
0700
0700
0700
4710
F278
7FF0
0700
0D80
1DC0
1DC0
38E0
0880
ENDCHAR
STARTCHAR plus
ENCODING 43
SWIDTH 564 0
DWIDTH 18 0
BBX 15 15 2 2
BITMAP
0380
0380
0380
0380
0380
0380
FFFE
FFFE
FFFE
0380
0380
0380
0380
0380
0380
ENDCHAR
STARTCHAR comma
ENCODING 44
SWIDTH 246 0
DWIDTH 8 0
BBX 4 9 2 -5
BITMAP
70
70
70
70
70
60
E0
E0
40
ENDCHAR
STARTCHAR hyphen
ENCODING 45
SWIDTH 299 0
DWIDTH 10 0
BBX 8 3 1 8
BITMAP
FF
FF
FF
ENDCHAR
STARTCHAR period
ENCODING 46
SWIDTH 246 0
DWIDTH 8 0
BBX 4 4 2 0
BITMAP
60
F0
F0
60
ENDCHAR
STARTCHAR slash
ENCODING 47
SWIDTH 384 0
DWIDTH 12 0
BBX 14 31 -1 -6
BITMAP
001C
0038
0038
0038
0070
0070
0070
00E0
00E0
00E0
01C0
01C0
01C0
0380
0380
0780
0700
0700
0E00
0E00
0E00
1C00
1C00
1C00
3800
3800
3800
7000
7000
7000
E000
ENDCHAR
STARTCHAR zero
ENCODING 48
SWIDTH 564 0
DWIDTH 18 0
BBX 14 22 2 0
BITMAP
0780
1FE0
3FF0
7878
7038
7038
E01C
E01C
E01C
E01C
E01C
E01C
E01C
E01C
E01C
E01C
7038
7038
7878
3FF0
1FE0
0F80
ENDCHAR
STARTCHAR one
ENCODING 49
SWIDTH 564 0
DWIDTH 18 0
BBX 9 22 3 0
BITMAP
0380
0780
1F80
7F80
FF80
F380
4380
0380
0380
0380
0380
0380
0380
0380
0380
0380
0380
0380
0380
0380
0380
0380
ENDCHAR
STARTCHAR two
ENCODING 50
SWIDTH 564 0
DWIDTH 18 0
BBX 14 22 2 0
BITMAP
1F80
7FE0
FFF0
70F8
4078
0038
0038
0038
0070
00F0
00E0
01C0
0380
0700
0E00
1C00
3800
7000
7000
FFFC
FFFC
FFFC
ENDCHAR
STARTCHAR three
ENCODING 51
SWIDTH 564 0
DWIDTH 18 0
BBX 14 22 2 0
BITMAP
1F80
FFE0
FFF0
6078
0038
0038
0038
00F0
0FE0
0FE0
0FF0
00F8
003C
001C
001C
001C
001C
003C
C078
FFF0
FFE0
3F80
ENDCHAR
STARTCHAR four
ENCODING 52
SWIDTH 564 0
DWIDTH 18 0
BBX 16 22 1 0
BITMAP
0078
0078
00F8
01F8
03F8
07B8
0F38
0E38
1C38
3838
3838
7038
E038
FFFF
FFFF
FFFF
0038
0038
0038
0038
0038
0038
ENDCHAR
STARTCHAR five
ENCODING 53
SWIDTH 564 0
DWIDTH 18 0
BBX 14 22 2 0
BITMAP
3FF8
3FF8
3FF8
3800
3800
3800
3800
3800
7F00
7FE0
7FF0
01F8
0038
003C
001C
001C
001C
003C
C078
FFF8
FFE0
3F80
ENDCHAR
STARTCHAR six
ENCODING 54
SWIDTH 564 0
DWIDTH 18 0
BBX 14 22 2 0
BITMAP
0078
03F8
0FF8
1F80
3C00
3800
7000
7000
6FC0
FFF0
FFF8
F078
E03C
E01C
E01C
E01C
E01C
703C
7878
3FF0
1FF0
0FC0
ENDCHAR
STARTCHAR seven
ENCODING 55
SWIDTH 564 0
DWIDTH 18 0
BBX 14 22 2 0
BITMAP
FFFC
FFFC
FFFC
0018
0038
0070
00E0
00E0
01C0
01C0
0380
0380
0700
0700
0700
0E00
0E00
0E00
0C00
1C00
1C00
1C00
ENDCHAR
STARTCHAR eight
ENCODING 56
SWIDTH 564 0
DWIDTH 18 0
BBX 14 22 2 0
BITMAP
0FC0
1FE0
3FF0
7878
7038
7038
7038
7838
3C70
1FE0
0FC0
3FF0
70F8
7078
E01C
E01C
E01C
F01C
F878
7FF8
3FF0
0FC0
ENDCHAR
STARTCHAR nine
ENCODING 57
SWIDTH 564 0
DWIDTH 18 0
BBX 14 22 2 0
BITMAP
0F80
3FE0
3FF0
7878
F038
E03C
E01C
E01C
E01C
F01C
783C
7FFC
3FFC
0FDC
0038
0038
0070
00F0
07E0
7FC0
7F00
7C00
ENDCHAR
STARTCHAR colon
ENCODING 58
SWIDTH 246 0
DWIDTH 8 0
BBX 4 17 2 0
BITMAP
60
F0
F0
60
00
00
00
00
00
00
00
00
00
60
F0
F0
60
ENDCHAR
STARTCHAR semicolon
ENCODING 59
SWIDTH 246 0
DWIDTH 8 0
BBX 4 22 2 -5
BITMAP
60
F0
F0
60
00
00
00
00
00
00
00
00
00
70
70
70
70
70
60
E0
E0
40
ENDCHAR
STARTCHAR less
ENCODING 60
SWIDTH 564 0
DWIDTH 18 0
BBX 15 15 2 2
BITMAP
0004
003C
00FE
07F8
1FC0
7F00
F800
E000
F800
7F00
1FC0
07F8
00FE
003C
0004
ENDCHAR
STARTCHAR equal
ENCODING 61
SWIDTH 564 0
DWIDTH 18 0
BBX 15 10 1 5
BITMAP
FFFE
FFFE
FFFE
0000
0000
0000
0000
FFFE
FFFE
FFFE
ENDCHAR
STARTCHAR greater
ENCODING 62
SWIDTH 564 0
DWIDTH 18 0
BBX 14 15 2 2
BITMAP
4000
7000
FE00
3F80
0FE0
03F8
007C
001C
007C
01F8
0FE0
3F80
FE00
7000
4000
ENDCHAR
STARTCHAR question
ENCODING 63
SWIDTH 404 0
DWIDTH 13 0
BBX 11 22 1 0
BITMAP
3F00
FFC0
FFC0
41E0
00E0
00E0
00E0
01C0
01C0
0780
0F00
0E00
1C00
1C00
1C00
0000
0000
0000
1C00
1C00
1C00
1C00
ENDCHAR
STARTCHAR at
ENCODING 64
SWIDTH 950 0
DWIDTH 30 0
BBX 26 28 2 -5
BITMAP
007F8000
01FFF000
07FFF800
0FC07C00
1F001E00
3C000F00
38000780
781F8380
707FC380
70FFC1C0
E0F1C1C0
E1E1C1C0
E1C1C1C0
E1C1C1C0
E1C1C1C0
E1C1C3C0
E1E1C380
E0E1C780
F0FFFF00
707FFE00
783E7C00
38000000
3C000000
1F000000
0FC04000
07FFC000
03FFC000
007FC000
ENDCHAR
STARTCHAR A
ENCODING 65
SWIDTH 663 0
DWIDTH 21 0
BBX 21 22 0 0
BITMAP
007000
00F800
00F800
01F800
01DC00
01DC00
039E00
038E00
078E00
070700
070700
0E0380
0E0380
1E03C0
1FFFC0
1FFFC0
3FFFE0
3800E0
7800F0
700070
700070
E00038
ENDCHAR
STARTCHAR B
ENCODING 66
SWIDTH 643 0
DWIDTH 21 0
BBX 16 22 3 0
BITMAP
FFC0
FFF8
FFFC
E03E
E01E
E00E
E00E
E01E
E03C
FFF8
FFF8
FFFC
E01E
E00F
E007
E007
E007
E00F
E03E
FFFE
FFF8
FFE0
ENDCHAR
STARTCHAR C
ENCODING 67
SWIDTH 620 0
DWIDTH 20 0
BBX 17 22 2 0
BITMAP
01FC00
07FF80
0FFF80
1F0300
3C0000
780000
700000
F00000
E00000
E00000
E00000
E00000
E00000
E00000
F00000
700000
780000
3C0000
3E0300
1FFF80
0FFF80
01FE00
ENDCHAR
STARTCHAR D
ENCODING 68
SWIDTH 713 0
DWIDTH 23 0
BBX 18 22 3 0
BITMAP
FFC000
FFF800
FFFC00
E03E00
E00F00
E00780
E00380
E003C0
E001C0
E001C0
E001C0
E001C0
E001C0
E001C0
E003C0
E00380
E00780
E00F00
E03E00
FFFC00
FFF800
FFC000
ENDCHAR
STARTCHAR E
ENCODING 69
SWIDTH 571 0
DWIDTH 18 0
BBX 14 22 3 0
BITMAP
FFF8
FFF8
FFF8
E000
E000
E000
E000
E000
E000
FFF0
FFF0
FFF0
E000
E000
E000
E000
E000
E000
E000
FFFC
FFFC
FFFC
ENDCHAR
STARTCHAR F
ENCODING 70
SWIDTH 537 0
DWIDTH 17 0
BBX 13 22 3 0
BITMAP
FFF8
FFF8
FFF8
E000
E000
E000
E000
E000
E000
FFF0
FFF0
FFF0
E000
E000
E000
E000
E000
E000
E000
E000
E000
E000
ENDCHAR
STARTCHAR G
ENCODING 71
SWIDTH 672 0
DWIDTH 22 0
BBX 17 22 2 0
BITMAP
01FC00
07FF80
1FFF80
3F0300
3C0000
780000
700000
F00000
E00000
E00000
E00000
E00380
E00380
E00380
F00380
700380
780380
3C0380
3E0380
1FFF80
0FFF80
01FE00
ENDCHAR
STARTCHAR H
ENCODING 72
SWIDTH 705 0
DWIDTH 23 0
BBX 17 22 3 0
BITMAP
E00380
E00380
E00380
E00380
E00380
E00380
E00380
E00380
E00380
FFFF80
FFFF80
FFFF80
E00380
E00380
E00380
E00380
E00380
E00380
E00380
E00380
E00380
E00380
ENDCHAR
STARTCHAR I
ENCODING 73
SWIDTH 269 0
DWIDTH 9 0
BBX 3 22 3 0
BITMAP
E0
E0
E0
E0
E0
E0
E0
E0
E0
E0
E0
E0
E0
E0
E0
E0
E0
E0
E0
E0
E0
E0
ENDCHAR
STARTCHAR J
ENCODING 74
SWIDTH 500 0
DWIDTH 16 0
BBX 13 22 0 0
BITMAP
0038
0038
0038
0038
0038
0038
0038
0038
0038
0038
0038
0038
0038
0038
0038
0038
0038
0078
60F0
FFF0
FFE0
1F80
ENDCHAR
STARTCHAR K
ENCODING 75
SWIDTH 629 0
DWIDTH 20 0
BBX 17 22 3 0
BITMAP
E00F00
E01E00
E03C00
E07800
E0F000
E1E000
E3C000
E78000
EF0000
FE0000
FC0000
FF0000
EF8000
E7C000
E3E000
E1F000
E07800
E03C00
E03E00
E01E00
E00F00
E00780
ENDCHAR
STARTCHAR L
ENCODING 76
SWIDTH 519 0
DWIDTH 17 0
BBX 13 22 3 0
BITMAP
E000
E000
E000
E000
E000
E000
E000
E000
E000
E000
E000
E000
E000
E000
E000
E000
E000
E000
E000
FFF8
FFF8
FFF8
ENDCHAR
STARTCHAR M
ENCODING 77
SWIDTH 871 0
DWIDTH 29 0
BBX 25 22 2 0
BITMAP
38000E00
3C001E00
3C001E00
7E003E00
7E003F00
7F007F00
77007700
7380E700
7380E700
71C1C700
71C1C700
70E38700
70E38700
70630700
F0770700
E0760380
E03E0380
E03E0380
E01C0380
E0000380
E0000380
E0000380
ENDCHAR
STARTCHAR N
ENCODING 78
SWIDTH 728 0
DWIDTH 23 0
BBX 17 22 3 0
BITMAP
E00380
F00380
F80380
FC0380
FC0380
EE0380
EF0380
E78380
E38380
E1C380
E1E380
E0E380
E07380
E07380
E03B80
E01F80
E01F80
E00F80
E00780
E00780
E00380
E00380
ENDCHAR
STARTCHAR O
ENCODING 79
SWIDTH 778 0
DWIDTH 25 0
BBX 21 22 2 0
BITMAP
01FC00
07FF00
1FFFC0
3F07E0
3C01E0
7800F0
700070
F00078
E00038
E00038
E00038
E00038
E00038
E00038
F00078
700070
7800F0
3C01E0
3F07E0
1FFFC0
07FF00
01FC00
ENDCHAR
STARTCHAR P
ENCODING 80
SWIDTH 608 0
DWIDTH 19 0
BBX 15 22 3 0
BITMAP
FFC0
FFF0
FFF8
E07C
E01E
E00E
E00E
E00E
E00E
E01E
E07C
FFF8
FFF0
FFC0
E000
E000
E000
E000
E000
E000
E000
E000
ENDCHAR
STARTCHAR Q
ENCODING 81
SWIDTH 778 0
DWIDTH 25 0
BBX 21 28 2 -6
BITMAP
01FC00
07FF00
1FFFC0
3F07E0
3C01E0
7800F0
700070
F00078
E00038
E00038
E00038
E00038
E00038
E00038
F00078
700070
7800F0
3C01E0
3F07E0
1FFFC0
07FF00
01FC00
003800
003C00
001F80
000FF0
0003E0
0000E0
ENDCHAR
STARTCHAR R
ENCODING 82
SWIDTH 629 0
DWIDTH 20 0
BBX 16 22 3 0
BITMAP
FFC0
FFF0
FFFC
E03C
E01E
E00E
E00E
E00E
E01E
E03C
FFFC
FFF0
FFC0
E0E0
E0F0
E070
E078
E038
E03C
E01C
E01E
E00F
ENDCHAR
STARTCHAR S
ENCODING 83
SWIDTH 532 0
DWIDTH 17 0
BBX 15 22 1 0
BITMAP
07F0
1FFC
3FFC
7C18
7000
7000
7000
7800
3E00
1F80
0FE0
01F8
007C
003C
000E
000E
000E
000E
603E
FFFC
FFF8
1FE0
ENDCHAR
STARTCHAR T
ENCODING 84
SWIDTH 565 0
DWIDTH 19 0
BBX 17 22 1 0
BITMAP
FFFF80
FFFF80
FFFF80
01C000
01C000
01C000
01C000
01C000
01C000
01C000
01C000
01C000
01C000
01C000
01C000
01C000
01C000
01C000
01C000
01C000
01C000
01C000
ENDCHAR
STARTCHAR U
ENCODING 85
SWIDTH 688 0
DWIDTH 22 0
BBX 16 22 3 0
BITMAP
E007
E007
E007
E007
E007
E007
E007
E007
E007
E007
E007
E007
E007
E007
E007
E007
F00F
700E
7C3E
3FFC
1FF8
07E0
ENDCHAR
STARTCHAR V
ENCODING 86
SWIDTH 656 0
DWIDTH 21 0
BBX 21 22 0 0
BITMAP
E00038
700070
700070
7800F0
3800E0
3800E0
3C01E0
1C01C0
1C01C0
0E0380
0E0380
0F0780
070700
078F00
038E00
038E00
03DE00
01DC00
01FC00
00F800
00F800
007000
ENDCHAR
STARTCHAR W
ENCODING 87
SWIDTH 929 0
DWIDTH 31 0
BBX 29 22 1 0
BITMAP
E0000038
E0000038
F0000078
70070070
70078070
700F8070
700F80F0
780DC0F0
381DC0E0
381DC0E0
3819E0E0
3C38E1E0
1C38E1C0
1C70F1C0
1C7071C0
1E7073C0
0EE03B80
0EE03B80
0FE03F80
0FC01F80
07C01F00
07801F00
ENDCHAR
STARTCHAR X
ENCODING 88
SWIDTH 631 0
DWIDTH 20 0
BBX 18 22 1 0
BITMAP
F00780
700700
380E00
3C1E00
1C1C00
0E3C00
0F3800
077000
03F000
03E000
01E000
03E000
03F000
07F800
0F3800
0E3C00
1E1E00
3C0E00
380F00
780780
700380
F003C0
ENDCHAR
STARTCHAR Y
ENCODING 89
SWIDTH 598 0
DWIDTH 19 0
BBX 19 22 0 0
BITMAP
F001E0
7001C0
7803C0
380380
1C0700
1E0F00
0E0E00
0F1E00
073C00
03B800
03F800
01F000
00E000
00E000
00E000
00E000
00E000
00E000
00E000
00E000
00E000
00E000
ENDCHAR
STARTCHAR Z
ENCODING 90
SWIDTH 573 0
DWIDTH 18 0
BBX 16 22 1 0
BITMAP
7FFF
7FFF
7FFF
000F
001E
003C
0038
0070
00F0
01E0
01C0
0380
0780
0F00
0E00
1C00
3C00
3800
7800
FFFF
FFFF
FFFF
ENDCHAR
STARTCHAR bracketleft
ENCODING 91
SWIDTH 329 0
DWIDTH 11 0
BBX 8 31 3 -6
BITMAP
FF
FF
FF
E0
E0
E0
E0
E0
E0
E0
E0
E0
E0
E0
E0
E0
E0
E0
E0
E0
E0
E0
E0
E0
E0
E0
E0
E0
FF
FF
FF
ENDCHAR
STARTCHAR backslash
ENCODING 92
SWIDTH 384 0
DWIDTH 12 0
BBX 14 31 -1 -6
BITMAP
E000
7000
7000
7000
3800
3800
3800
1C00
1C00
1C00
0E00
0E00
0E00
0700
0700
0780
0380
0380
01C0
01C0
01C0
00E0
00E0
00E0
0070
0070
0070
0038
0038
0038
001C
ENDCHAR
STARTCHAR bracketright
ENCODING 93
SWIDTH 329 0
DWIDTH 11 0
BBX 8 31 0 -6
BITMAP
FF
FF
FF
07
07
07
07
07
07
07
07
07
07
07
07
07
07
07
07
07
07
07
07
07
07
07
07
07
FF
FF
FF
ENDCHAR
STARTCHAR asciicircum
ENCODING 94
SWIDTH 564 0
DWIDTH 18 0
BBX 15 12 2 10
BITMAP
0380
07C0
07C0
0EE0
1EF0
1C70
3838
3838
701C
701C
E00E
4004
ENDCHAR
STARTCHAR underscore
ENCODING 95
SWIDTH 492 0
DWIDTH 16 0
BBX 16 3 0 -6
BITMAP
FFFF
FFFF
FFFF
ENDCHAR
STARTCHAR grave
ENCODING 96
SWIDTH 376 0
DWIDTH 12 0
BBX 6 6 2 19
BITMAP
40
E0
70
38
1C
08
ENDCHAR
STARTCHAR a
ENCODING 97
SWIDTH 522 0
DWIDTH 17 0
BBX 13 17 1 0
BITMAP
1FC0
3FE0
3FF0
2078
0038
0038
0FF8
3FF8
7FF8
F038
E038
E038
E038
F038
7FF8
3FF8
1FF0
ENDCHAR
STARTCHAR b
ENCODING 98
SWIDTH 589 0
DWIDTH 19 0
BBX 14 25 3 0
BITMAP
E000
E000
E000
E000
E000
E000
E000
E000
EFC0
FFE0
FFF0
F078
E038
E03C
E01C
E01C
E01C
E01C
E01C
E03C
E038
E0F8
FFF0
FFE0
7F80
ENDCHAR
STARTCHAR c
ENCODING 99
SWIDTH 465 0
DWIDTH 15 0
BBX 12 17 2 0
BITMAP
07E0
1FF0
3FF0
7C00
7000
F000
E000
E000
E000
E000
E000
F000
7000
7C10
3FF0
1FF0
07E0
ENDCHAR
STARTCHAR d
ENCODING 100
SWIDTH 589 0
DWIDTH 19 0
BBX 14 25 2 0
BITMAP
001C
001C
001C
001C
001C
001C
001C
001C
0FDC
1FFC
3FFC
783C
701C
F01C
E01C
E01C
E01C
E01C
E01C
F01C
701C
7C1C
3FFC
1FFC
07F8
ENDCHAR
STARTCHAR e
ENCODING 101
SWIDTH 559 0
DWIDTH 18 0
BBX 14 17 2 0
BITMAP
07C0
1FF0
3FF8
7878
701C
E01C
FFFC
FFFC
FFFC
E000
E000
F000
7000
7C08
3FF8
1FF8
07F0
ENDCHAR
STARTCHAR f
ENCODING 102
SWIDTH 386 0
DWIDTH 12 0
BBX 9 25 3 0
BITMAP
1F80
3F80
7F80
F080
E000
E000
E000
E000
FF00
FF00
FF00
E000
E000
E000
E000
E000
E000
E000
E000
E000
E000
E000
E000
E000
E000
ENDCHAR
STARTCHAR g
ENCODING 103
SWIDTH 578 0
DWIDTH 19 0
BBX 14 23 2 -6
BITMAP
07F0
1FFC
3FFC
7C1C
701C
F01C
E01C
E01C
E01C
E01C
E01C
F01C
783C
3FFC
1FFC
0FDC
001C
001C
003C
6078
7FF8
7FF0
3FC0
ENDCHAR
STARTCHAR h
ENCODING 104
SWIDTH 571 0
DWIDTH 19 0
BBX 13 25 3 0
BITMAP
E000
E000
E000
E000
E000
E000
E000
E000
FFC0
FFE0
FFF0
E0F0
E078
E038
E038
E038
E038
E038
E038
E038
E038
E038
E038
E038
E038
ENDCHAR
STARTCHAR i
ENCODING 105
SWIDTH 253 0
DWIDTH 9 0
BBX 3 24 3 0
BITMAP
E0
E0
E0
00
00
00
00
E0
E0
E0
E0
E0
E0
E0
E0
E0
E0
E0
E0
E0
E0
E0
E0
E0
ENDCHAR
STARTCHAR j
ENCODING 106
SWIDTH 253 0
DWIDTH 9 0
BBX 8 30 -2 -6
BITMAP
07
07
07
00
00
00
00
07
07
07
07
07
07
07
07
07
07
07
07
07
07
07
07
07
07
07
0F
FE
FC
F8
ENDCHAR
STARTCHAR k
ENCODING 107
SWIDTH 522 0
DWIDTH 17 0
BBX 14 25 3 0
BITMAP
E000
E000
E000
E000
E000
E000
E000
E000
E078
E070
E0E0
E1C0
E380
E700
EE00
FC00
FE00
EF00
E780
E3C0
E1E0
E0E0
E070
E038
E03C
ENDCHAR
STARTCHAR l
ENCODING 108
SWIDTH 273 0
DWIDTH 10 0
BBX 6 25 3 0
BITMAP
E0
E0
E0
E0
E0
E0
E0
E0
E0
E0
E0
E0
E0
E0
E0
E0
E0
E0
E0
E0
E0
F0
FC
7C
3C
ENDCHAR
STARTCHAR m
ENCODING 109
SWIDTH 861 0
DWIDTH 29 0
BBX 23 17 3 0
BITMAP
3FC3F0
FFEFF8
FFFFFC
E0FC3C
E0781E
E0380E
E0380E
E0380E
E0380E
E0380E
E0380E
E0380E
E0380E
E0380E
E0380E
E0380E
E0380E
ENDCHAR
STARTCHAR n
ENCODING 110
SWIDTH 574 0
DWIDTH 18 0
BBX 12 17 3 0
BITMAP
7F80
FFC0
FFE0
E0E0
E0F0
E070
E070
E070
E070
E070
E070
E070
E070
E070
E070
E070
E070
ENDCHAR
STARTCHAR o
ENCODING 111
SWIDTH 590 0
DWIDTH 19 0
BBX 15 17 2 0
BITMAP
07C0
1FF0
3FF8
783C
701C
F01E
E00E
E00E
E00E
E00E
E00E
F01E
701C
783C
3FF8
1FF0
07C0
ENDCHAR
STARTCHAR p
ENCODING 112
SWIDTH 589 0
DWIDTH 19 0
BBX 14 23 3 -6
BITMAP
3F80
FFE0
FFF0
E0F8
E038
E03C
E01C
E01C
E01C
E01C
E01C
E03C
E038
F078
FFF0
FFE0
EFC0
E000
E000
E000
E000
E000
E000
ENDCHAR
STARTCHAR q
ENCODING 113
SWIDTH 589 0
DWIDTH 19 0
BBX 14 23 2 -6
BITMAP
07F0
1FFC
3FFC
7C1C
701C
F01C
E01C
E01C
E01C
E01C
E01C
F01C
701C
783C
3FFC
1FFC
0FDC
001C
001C
001C
001C
001C
001C
ENDCHAR
STARTCHAR r
ENCODING 114
SWIDTH 386 0
DWIDTH 12 0
BBX 9 17 3 0
BITMAP
3F80
FF80
FF80
E000
E000
E000
E000
E000
E000
E000
E000
E000
E000
E000
E000
E000
E000
ENDCHAR
STARTCHAR s
ENCODING 115
SWIDTH 446 0
DWIDTH 14 0
BBX 11 17 1 0
BITMAP
1F80
7FC0
7FC0
F040
E000
E000
F000
7E00
3F80
0FC0
01E0
00E0
00E0
C1E0
FFE0
FFC0
7F00
ENDCHAR
STARTCHAR t
ENCODING 116
SWIDTH 402 0
DWIDTH 13 0
BBX 9 22 3 0
BITMAP
E000
E000
E000
E000
E000
FF00
FF00
FF00
E000
E000
E000
E000
E000
E000
E000
E000
E000
E000
F000
7F80
7F80
1F00
ENDCHAR
STARTCHAR u
ENCODING 117
SWIDTH 574 0
DWIDTH 18 0
BBX 12 17 3 0
BITMAP
E070
E070
E070
E070
E070
E070
E070
E070
E070
E070
E070
E070
F070
7870
7FF0
3FF0
1FE0
ENDCHAR
STARTCHAR v
ENCODING 118
SWIDTH 502 0
DWIDTH 17 0
BBX 15 17 1 0
BITMAP
E00E
E00E
701C
701C
701C
3838
3838
3838
1C70
1C70
1EF0
0EE0
0EE0
07C0
07C0
07C0
0380
ENDCHAR
STARTCHAR w
ENCODING 119
SWIDTH 777 0
DWIDTH 25 0
BBX 23 17 1 0
BITMAP
E0380E
E0380E
70381C
707C1C
707C1C
706C1C
306C38
38EE38
38EE38
38C638
1DC770
1DC770
1D8370
0F83E0
0F83E0
0F01E0
0701C0
ENDCHAR
STARTCHAR x
ENCODING 120
SWIDTH 511 0
DWIDTH 16 0
BBX 14 17 1 0
BITMAP
E038
7070
38F0
38E0
1DC0
0FC0
0F80
0780
0780
0F80
0FC0
1DE0
3CE0
3870
7078
7038
E01C
ENDCHAR
STARTCHAR y
ENCODING 121
SWIDTH 497 0
DWIDTH 16 0
BBX 14 23 1 -6
BITMAP
E01C
E01C
7038
7038
7038
3870
3870
3870
1C70
1CE0
1CE0
0EE0
0EC0
0EC0
07C0
0780
0780
0380
0780
0F00
FE00
FE00
F800
ENDCHAR
STARTCHAR z
ENCODING 122
SWIDTH 471 0
DWIDTH 15 0
BBX 13 17 1 0
BITMAP
FFF8
FFF8
FFF8
0078
0070
00E0
01C0
0380
0700
0E00
1C00
3C00
3800
7000
FFF8
FFF8
FFF8
ENDCHAR
STARTCHAR braceleft
ENCODING 123
SWIDTH 333 0
DWIDTH 11 0
BBX 9 31 1 -6
BITMAP
0380
0F80
1F80
1E00
1C00
1C00
1C00
1C00
1C00
1C00
1C00
1C00
1C00
3C00
F800
F000
F800
3C00
1C00
1C00
1C00
1C00
1C00
1C00
1C00
1C00
1C00
1E00
1F80
0F80
0380
ENDCHAR
STARTCHAR bar
ENCODING 124
SWIDTH 279 0
DWIDTH 9 0
BBX 3 31 3 -6
BITMAP
E0
E0
E0
E0
E0
E0
E0
E0
E0
E0
E0
E0
E0
E0
E0
E0
E0
E0
E0
E0
E0
E0
E0
E0
E0
E0
E0
E0
E0
E0
E0
ENDCHAR
STARTCHAR braceright
ENCODING 125
SWIDTH 333 0
DWIDTH 11 0
BBX 9 31 1 -6
BITMAP
E000
F800
FC00
3C00
1C00
1C00
1C00
1C00
1C00
1C00
1C00
1C00
1C00
1E00
0F80
0780
0F80
1E00
1C00
1C00
1C00
1C00
1C00
1C00
1C00
1C00
1C00
3C00
FC00
F800
E000
ENDCHAR
STARTCHAR asciitilde
ENCODING 126
SWIDTH 564 0
DWIDTH 18 0
BBX 15 6 1 7
BITMAP
3C0E
7E0E
7F9E
F3FC
E0FC
E078
ENDCHAR
STARTCHAR degree
ENCODING 176
SWIDTH 332 0
DWIDTH 11 0
BBX 9 8 1 16
BITMAP
3E00
7F00
E380
C180
C180
E380
7F00
3E00
ENDCHAR
ENDFONT
